<?xml version="1.0" encoding="UTF-8"?>
<!DOCTYPE svg PUBLIC "-//W3C//DTD SVG 1.1//EN" "http://www.w3.org/Graphics/SVG/1.1/DTD/svg11.dtd">
<svg xmlns="http://www.w3.org/2000/svg" version="1.1" width="1998px" height="1322px" style="shape-rendering:geometricPrecision; text-rendering:geometricPrecision; image-rendering:optimizeQuality; fill-rule:evenodd; clip-rule:evenodd" xmlns:xlink="http://www.w3.org/1999/xlink">
<g><path style="opacity:1" fill="#000000" d="M -0.5,-0.5 C 665.5,-0.5 1331.5,-0.5 1997.5,-0.5C 1997.5,440.167 1997.5,880.833 1997.5,1321.5C 1331.5,1321.5 665.5,1321.5 -0.5,1321.5C -0.5,880.833 -0.5,440.167 -0.5,-0.5 Z"/></g>
<g><path style="opacity:1" fill="#fefefe" d="M 967.5,93.5 C 1100.45,89.7039 1228.79,111.871 1352.5,160C 1433.9,192.495 1506.9,237.828 1571.5,296C 1626.71,347.22 1668.55,407.72 1697,477.5C 1737.44,590.456 1729.44,699.789 1673,805.5C 1635.65,870.532 1587.15,926.032 1527.5,972C 1442.92,1035.12 1349.25,1079.79 1246.5,1106C 1133.16,1134.69 1018.16,1144.03 901.5,1134C 833.67,1178.42 765.67,1222.58 697.5,1266.5C 695.904,1264.14 694.738,1261.47 694,1258.5C 677.473,1196.06 660.473,1133.73 643,1071.5C 574.919,1043.22 512.085,1006.39 454.5,961C 392.504,911.356 344.338,850.856 310,779.5C 253.313,648.738 262.313,522.738 337,401.5C 374.139,345.022 419.639,296.189 473.5,255C 569.021,185.596 675.021,138.929 791.5,115C 849.676,102.667 908.343,95.5005 967.5,93.5 Z"/></g>
</svg>
