<svg version="1.1" id="Layer_1" xmlns="http://www.w3.org/2000/svg" xmlns:xlink="http://www.w3.org/1999/xlink" x="0px" y="0px"
	 width="100%" viewBox="0 0 512 512" enable-background="new 0 0 512 512" xml:space="preserve">
<path fill="#F4FBFF" opacity="1.000000" stroke="none" 
	d="
M390.000000,513.000000 
	C278.311310,513.000000 166.622650,513.000000 54.757736,512.712280 
	C46.510719,507.080872 43.793659,499.799103 43.813583,489.969604 
	C44.089256,353.976013 43.999256,217.981705 44.006447,81.987579 
	C44.006554,79.991455 44.104584,77.995338 44.615692,75.992142 
	C71.402573,75.983604 97.730682,75.976860 124.058784,75.981613 
	C217.373291,75.998482 310.687805,76.019287 404.001190,76.504829 
	C404.014099,164.878891 404.028137,252.786728 403.578674,340.790466 
	C384.433411,340.918396 365.751709,340.950348 347.029510,340.516266 
	C346.976288,331.234314 347.040558,322.417419 346.927948,313.602814 
	C346.826477,305.659119 343.100800,301.915497 335.350189,301.912170 
	C283.119324,301.889679 230.888443,301.889618 178.657562,301.912079 
	C170.874100,301.915436 167.121323,305.721130 167.056793,313.546661 
	C166.981354,322.693695 166.967484,331.841187 166.464905,340.992126 
	C145.023972,340.996796 124.045052,340.995667 103.066139,340.999878 
	C94.438660,341.001617 90.085007,345.049896 90.061447,353.660034 
	C89.975784,384.961670 89.978928,416.263855 90.065903,447.565491 
	C90.086006,454.801239 94.488037,459.001526 101.624184,459.005585 
	C140.918030,459.028046 180.211914,459.029663 219.505737,459.003387 
	C226.483002,458.998718 229.974747,455.520630 230.018967,448.618744 
	C230.079773,439.128723 230.059357,429.638214 230.535461,420.100037 
	C248.578812,420.073547 266.160431,420.094910 283.768585,420.574341 
	C283.801819,429.345612 283.803436,437.658783 283.816528,445.971924 
	C283.833008,456.399811 286.543518,459.079102 297.067078,459.091919 
	C332.646240,459.135284 368.225403,459.178833 403.858765,459.409607 
	C403.912933,459.596893 404.009918,459.974609 404.006500,460.444855 
	C404.001556,471.509888 404.058563,482.105133 403.977142,492.699310 
	C403.926331,499.309967 401.641113,505.008331 396.263245,509.115265 
	C394.319946,510.599304 392.095947,511.715790 390.000000,513.000000 
M225.351013,249.631088 
	C227.715363,250.735626 230.020462,251.996689 232.454147,252.918091 
	C244.079529,257.319397 256.023926,258.104828 268.249725,256.060974 
	C282.015686,253.759659 294.092957,248.156021 304.673950,237.939789 
	C319.304810,223.930862 326.400940,206.871170 326.044159,186.547699 
	C325.567688,159.407333 312.910065,139.625153 289.767151,126.396645 
	C278.416168,119.908401 265.876556,118.315948 252.780548,118.813927 
	C242.446259,119.206902 232.891296,121.135742 223.569626,126.879013 
	C197.830688,142.674316 184.814056,165.115570 188.084976,195.760757 
	C189.879929,212.577652 197.271744,226.734116 210.143341,238.731644 
	C215.073792,242.175491 220.004227,245.619339 225.351013,249.631088 
z"/>
<path fill="#E4F6FF" opacity="1.000000" stroke="none" 
	d="
M404.042175,340.694550 
	C404.028137,252.786728 404.014099,164.878891 404.000061,76.475357 
	C404.000092,75.979645 404.003174,75.920746 404.471039,75.946587 
	C426.574097,75.983025 448.209290,75.993629 469.916260,76.467735 
	C469.992096,216.379501 469.990387,355.827759 470.023163,495.276001 
	C470.024323,500.293457 468.515411,504.479279 464.695160,507.861847 
	C462.967804,509.391266 461.555359,511.276306 460.000000,513.000000 
	C436.979095,513.000000 413.958221,513.000000 390.468658,513.000000 
	C392.095947,511.715790 394.319946,510.599304 396.263245,509.115265 
	C401.641113,505.008331 403.926331,499.309967 403.977142,492.699310 
	C404.058563,482.105133 404.001556,471.509888 404.460602,460.454834 
	C407.082550,459.994843 409.254303,460.110657 411.410126,459.974579 
	C419.020935,459.494080 423.814789,455.270355 423.837189,448.443512 
	C423.941895,416.476562 423.950409,384.508881 423.838684,352.541962 
	C423.811676,344.816589 419.660187,341.023956 411.967010,340.964478 
	C409.306152,340.943909 406.644257,341.050446 404.024078,341.001709 
	C404.065308,340.904480 404.042175,340.694550 404.042175,340.694550 
z"/>
<path fill="#CBE2FF" opacity="1.000000" stroke="none" 
	d="
M404.001221,76.009117 
	C310.687805,76.019287 217.373291,75.998482 124.058784,75.981613 
	C97.730682,75.976860 71.402573,75.983604 44.539848,75.529816 
	C44.002869,56.609913 44.105408,38.144318 43.936344,19.681213 
	C43.883327,13.891685 45.571571,9.191411 49.995403,5.410589 
	C51.492935,4.130723 52.674202,2.480806 54.000000,1.000000 
	C166.354233,1.000000 278.708466,1.000000 391.582428,1.340600 
	C402.689911,7.897233 404.518036,17.670641 404.132629,28.989876 
	C403.600525,44.616848 404.001709,60.275604 404.003174,75.920746 
	C404.003174,75.920746 404.000092,75.979645 404.001221,76.009117 
M397.980072,40.972321 
	C397.992126,39.974812 397.975403,38.975979 398.021179,37.980019 
	C398.230896,33.419231 396.066833,30.151283 391.971985,28.645889 
	C387.936523,27.162350 383.628540,27.241291 380.350739,30.513346 
	C377.386169,33.472687 376.098541,37.102814 377.636963,41.431061 
	C379.104309,45.559364 381.783966,48.366291 386.081360,48.899464 
	C391.678284,49.593876 395.645691,46.971836 397.980072,40.972321 
M338.003754,39.290401 
	C339.415619,45.672554 343.615448,49.309715 349.209808,48.995121 
	C354.087677,48.720825 358.609344,44.276047 358.995239,39.376114 
	C359.481079,33.207302 356.010254,28.547401 350.526398,28.005840 
	C342.728027,27.235704 338.959015,30.388290 338.003754,39.290401 
z"/>
<path fill="#000000" opacity="1.000000" stroke="none" 
	d="
M53.531342,1.000000 
	C52.674202,2.480806 51.492935,4.130723 49.995403,5.410589 
	C45.571571,9.191411 43.883327,13.891685 43.936344,19.681213 
	C44.105408,38.144318 44.002869,56.609913 44.081070,75.536880 
	C44.104584,77.995338 44.006554,79.991455 44.006447,81.987579 
	C43.999256,217.981705 44.089256,353.976013 43.813583,489.969604 
	C43.793659,499.799103 46.510719,507.080872 54.290749,512.712280 
	C36.345848,513.000000 18.691692,513.000000 1.043636,513.000000 
	C1.049733,342.333313 1.049733,171.666656 1.049733,1.000000 
	C18.420538,1.000000 35.741611,1.000000 53.531342,1.000000 
z"/>
<path fill="#000000" opacity="1.000000" stroke="none" 
	d="
M460.468689,513.000000 
	C461.555359,511.276306 462.967804,509.391266 464.695160,507.861847 
	C468.515411,504.479279 470.024323,500.293457 470.023163,495.276001 
	C469.990387,355.827759 469.992096,216.379501 469.991516,76.004860 
	C469.997375,56.616585 469.894226,38.153721 470.064240,19.693375 
	C470.117554,13.903989 468.440033,9.199603 464.013245,5.417527 
	C462.512695,4.135535 461.328674,2.483127 460.000000,0.999993 
	C477.654144,1.000000 495.308319,1.000000 512.956299,1.000002 
	C512.950195,171.666672 512.950195,342.333344 512.950195,513.000000 
	C495.579407,513.000000 478.258362,513.000000 460.468689,513.000000 
z"/>
<path fill="#BED8FB" opacity="1.000000" stroke="none" 
	d="
M459.531372,0.999993 
	C461.328674,2.483127 462.512695,4.135535 464.013245,5.417527 
	C468.440033,9.199603 470.117554,13.903989 470.064240,19.693375 
	C469.894226,38.153721 469.997375,56.616585 469.919739,75.541351 
	C448.209290,75.993629 426.574097,75.983025 404.471039,75.946587 
	C404.001709,60.275604 403.600525,44.616848 404.132629,28.989876 
	C404.518036,17.670641 402.689911,7.897233 392.051086,1.340600 
	C414.354218,1.000000 436.708466,1.000000 459.531372,0.999993 
M434.531860,31.041393 
	C430.165344,27.517179 424.966431,26.768000 421.268219,29.430779 
	C417.526367,32.124981 415.260468,35.697750 416.366821,40.555851 
	C417.443115,45.281853 420.654480,48.671486 425.266541,48.629498 
	C428.681610,48.598404 433.068268,47.046432 435.244934,44.594414 
	C438.509186,40.917160 437.916748,35.928905 434.531860,31.041393 
z"/>
<path fill="#8FDDC1" opacity="1.000000" stroke="none" 
	d="
M166.926910,340.988495 
	C166.967484,331.841187 166.981354,322.693695 167.056793,313.546661 
	C167.121323,305.721130 170.874100,301.915436 178.657562,301.912079 
	C230.888443,301.889618 283.119324,301.889679 335.350189,301.912170 
	C343.100800,301.915497 346.826477,305.659119 346.927948,313.602814 
	C347.040558,322.417419 346.976288,331.234314 346.983398,340.984985 
	C346.967651,363.879883 346.989014,385.840149 346.931122,407.800171 
	C346.909363,416.063690 342.898102,419.973053 334.646057,419.996826 
	C317.678101,420.045715 300.710052,420.077454 283.742065,420.116272 
	C266.160431,420.094910 248.578812,420.073547 230.061218,420.046326 
	C212.672455,420.026978 196.219666,420.018036 179.766891,419.998169 
	C170.840454,419.987427 167.059189,416.213226 167.041794,407.294952 
	C166.998688,385.192810 166.964615,363.090637 166.926910,340.988495 
z"/>
<path fill="#F1CCEA" opacity="1.000000" stroke="none" 
	d="
M166.464905,340.992126 
	C166.964615,363.090637 166.998688,385.192810 167.041794,407.294952 
	C167.059189,416.213226 170.840454,419.987427 179.766891,419.998169 
	C196.219666,420.018036 212.672455,420.026978 229.599487,420.094177 
	C230.059357,429.638214 230.079773,439.128723 230.018967,448.618744 
	C229.974747,455.520630 226.483002,458.998718 219.505737,459.003387 
	C180.211914,459.029663 140.918030,459.028046 101.624184,459.005585 
	C94.488037,459.001526 90.086006,454.801239 90.065903,447.565491 
	C89.978928,416.263855 89.975784,384.961670 90.061447,353.660034 
	C90.085007,345.049896 94.438660,341.001617 103.066139,340.999878 
	C124.045052,340.995667 145.023972,340.996796 166.464905,340.992126 
z"/>
<path fill="#FFE07D" opacity="1.000000" stroke="none" 
	d="
M283.768585,420.574371 
	C300.710052,420.077454 317.678101,420.045715 334.646057,419.996826 
	C342.898102,419.973053 346.909363,416.063690 346.931122,407.800171 
	C346.989014,385.840149 346.967651,363.879883 347.023865,341.451050 
	C365.751709,340.950348 384.433411,340.918396 403.578674,340.790466 
	C404.042175,340.694550 404.065308,340.904480 404.020752,341.462708 
	C403.976044,347.008545 403.982727,351.996124 403.974670,356.983734 
	C403.919708,391.063263 403.861633,425.142792 403.804565,459.222321 
	C368.225403,459.178833 332.646240,459.135284 297.067078,459.091919 
	C286.543518,459.079102 283.833008,456.399811 283.816528,445.971924 
	C283.803436,437.658783 283.801819,429.345612 283.768585,420.574371 
z"/>
<path fill="#DD636E" opacity="1.000000" stroke="none" 
	d="
M224.154602,126.704445 
	C232.891296,121.135742 242.446259,119.206902 252.780548,118.813927 
	C265.876556,118.315948 278.416168,119.908401 289.767151,126.396645 
	C312.910065,139.625153 325.567688,159.407333 326.044159,186.547699 
	C326.400940,206.871170 319.304810,223.930862 304.142548,237.825821 
	C298.071320,222.084778 287.528442,211.474518 271.962891,205.702484 
	C283.838379,196.616791 283.116852,178.376205 276.717804,170.593033 
	C271.058716,163.709869 263.831573,160.540710 254.839294,160.560516 
	C248.256668,145.660904 238.191116,134.375839 224.154602,126.704445 
z"/>
<path fill="#E28086" opacity="1.000000" stroke="none" 
	d="
M223.862122,126.791733 
	C238.191116,134.375839 248.256668,145.660904 254.463806,160.659332 
	C253.470428,161.351547 252.721222,161.741043 251.925095,161.912048 
	C235.506653,165.438980 227.457657,181.995956 235.320129,196.700333 
	C237.149155,200.120972 240.255569,202.858566 242.436798,206.007309 
	C236.941452,208.974747 231.572189,211.527542 226.672607,214.786484 
	C218.217438,220.410416 214.180679,229.432800 209.829941,238.133698 
	C197.271744,226.734116 189.879929,212.577652 188.084976,195.760757 
	C184.814056,165.115570 197.830688,142.674316 223.862122,126.791733 
z"/>
<path fill="#417093" opacity="1.000000" stroke="none" 
	d="
M271.838043,206.025940 
	C287.528442,211.474518 298.071320,222.084778 303.849731,238.005234 
	C294.092957,248.156021 282.015686,253.759659 268.249725,256.060974 
	C256.023926,258.104828 244.079529,257.319397 232.454147,252.918091 
	C230.020462,251.996689 227.715363,250.735626 225.303070,249.042419 
	C230.928909,243.710144 237.075272,239.418945 242.157974,234.109497 
	C248.648880,227.329041 254.068726,219.606354 256.406372,210.023621 
	C261.841492,208.682693 266.839783,207.354309 271.838043,206.025940 
z"/>
<path fill="#F2DB45" opacity="1.000000" stroke="none" 
	d="
M403.858765,459.409607 
	C403.861633,425.142792 403.919708,391.063263 403.974670,356.983734 
	C403.982727,351.996124 403.976044,347.008545 403.979492,341.559937 
	C406.644257,341.050446 409.306152,340.943909 411.967010,340.964478 
	C419.660187,341.023956 423.811676,344.816589 423.838684,352.541962 
	C423.950409,384.508881 423.941895,416.476562 423.837189,448.443512 
	C423.814789,455.270355 419.020935,459.494080 411.410126,459.974579 
	C409.254303,460.110657 407.082550,459.994843 404.464020,459.984558 
	C404.009918,459.974609 403.912933,459.596893 403.858765,459.409607 
z"/>
<path fill="#4B80AA" opacity="1.000000" stroke="none" 
	d="
M255.969543,210.036163 
	C254.068726,219.606354 248.648880,227.329041 242.157974,234.109497 
	C237.075272,239.418945 230.928909,243.710144 225.094910,248.758484 
	C220.004227,245.619339 215.073792,242.175491 209.986633,238.432678 
	C214.180679,229.432800 218.217438,220.410416 226.672607,214.786484 
	C231.572189,211.527542 236.941452,208.974747 242.787323,206.144730 
	C247.640030,207.468918 251.804794,208.752548 255.969543,210.036163 
z"/>
<path fill="#F3FBFF" opacity="1.000000" stroke="none" 
	d="
M397.932068,41.378235 
	C395.645691,46.971836 391.678284,49.593876 386.081360,48.899464 
	C381.783966,48.366291 379.104309,45.559364 377.636963,41.431061 
	C376.098541,37.102814 377.386169,33.472687 380.350739,30.513346 
	C383.628540,27.241291 387.936523,27.162350 391.971985,28.645889 
	C396.066833,30.151283 398.230896,33.419231 398.021179,37.980019 
	C397.975403,38.975979 397.992126,39.974812 397.932068,41.378235 
z"/>
<path fill="#F3FBFF" opacity="1.000000" stroke="none" 
	d="
M338.001953,38.886925 
	C338.959015,30.388290 342.728027,27.235704 350.526398,28.005840 
	C356.010254,28.547401 359.481079,33.207302 358.995239,39.376114 
	C358.609344,44.276047 354.087677,48.720825 349.209808,48.995121 
	C343.615448,49.309715 339.415619,45.672554 338.001953,38.886925 
z"/>
<path fill="#F3FAFF" opacity="1.000000" stroke="none" 
	d="
M434.799072,31.330616 
	C437.916748,35.928905 438.509186,40.917160 435.244934,44.594414 
	C433.068268,47.046432 428.681610,48.598404 425.266541,48.629498 
	C420.654480,48.671486 417.443115,45.281853 416.366821,40.555851 
	C415.260468,35.697750 417.526367,32.124981 421.268219,29.430779 
	C424.966431,26.768000 430.165344,27.517179 434.799072,31.330616 
z"/>
<path fill="#375E7D" opacity="1.000000" stroke="none" 
	d="
M256.406372,210.023621 
	C251.804794,208.752548 247.640030,207.468918 243.124756,206.047867 
	C240.255569,202.858566 237.149155,200.120972 235.320129,196.700333 
	C227.457657,181.995956 235.506653,165.438980 251.925095,161.912048 
	C252.721222,161.741043 253.470428,161.351547 254.616989,160.964966 
	C263.831573,160.540710 271.058716,163.709869 276.717804,170.593033 
	C283.116852,178.376205 283.838379,196.616791 271.962891,205.702484 
	C266.839783,207.354309 261.841492,208.682693 256.406372,210.023621 
z"/>
</svg>