<?xml version="1.0" encoding="UTF-8" standalone="no" ?>
<!DOCTYPE svg PUBLIC "-//W3C//DTD SVG 1.1//EN" "http://www.w3.org/Graphics/SVG/1.1/DTD/svg11.dtd">
<svg xmlns="http://www.w3.org/2000/svg" xmlns:xlink="http://www.w3.org/1999/xlink" version="1.1" width="1080" height="1080" viewBox="0 0 1080 1080" xml:space="preserve">
<desc>Created with Fabric.js 5.2.4</desc>
<defs>
</defs>
<rect x="0" y="0" width="100%" height="100%" fill="transparent"></rect>
<g transform="matrix(1 0 0 1 540 540)" id="15c25b93-37fa-4686-a621-38d47b2946ee"  >
<rect style="stroke: none; stroke-width: 1; stroke-dasharray: none; stroke-linecap: butt; stroke-dashoffset: 0; stroke-linejoin: miter; stroke-miterlimit: 4; fill: rgb(255,255,255); fill-rule: nonzero; opacity: 1;" vector-effect="non-scaling-stroke"  x="-540" y="-540" rx="0" ry="0" width="1080" height="1080" />
</g>
<g transform="matrix(1 0 0 1 540 540)" id="6d634e27-1d84-4f69-9a5f-b4d2f70bb446"  >
</g>
<g transform="matrix(1.28 0 0 1.28 554.05 554.05)" id="5665c707-c13e-4c8c-846f-d6a93da75a30"  >
<path style="stroke: rgb(0,0,0); stroke-width: 0; stroke-dasharray: none; stroke-linecap: butt; stroke-dashoffset: 0; stroke-linejoin: miter; stroke-miterlimit: 4; fill: rgb(0,0,0); fill-rule: nonzero; opacity: 1;" vector-effect="non-scaling-stroke"  transform=" translate(-500, -500)" d="M 794 10 L 206 10 C 98.2 10 10 98.2 10 206 L 10 794 C 10 901.8 98.2 990 206 990 L 794 990 C 901.8 990 990 901.8 990 794 L 990 206 C 990 98.2 901.8 10 794 10 z M 833.1 464.3 L 782.7 431.3 L 782.7 828.8 L 217.5 828.8 L 217.5 431.3 L 167 464.3 L 132.6 411.7 L 500.1 171.1 L 867.6 411.7 L 833.1 464.3 z M 500.1 246.3 L 730.5 397.1 L 269.7 397.1 L 500.1 246.3 z" stroke-linecap="round" />
</g>
</svg>