<?xml version="1.0" encoding="UTF-8"?>
<!DOCTYPE svg PUBLIC "-//W3C//DTD SVG 1.1//EN" "http://www.w3.org/Graphics/SVG/1.1/DTD/svg11.dtd">
<svg xmlns="http://www.w3.org/2000/svg" version="1.1" width="3093px" height="1803px" style="shape-rendering:geometricPrecision; text-rendering:geometricPrecision; image-rendering:optimizeQuality; fill-rule:evenodd; clip-rule:evenodd" xmlns:xlink="http://www.w3.org/1999/xlink">
<g><path style="opacity:1" fill="#000000" d="M -0.5,-0.5 C 1030.5,-0.5 2061.5,-0.5 3092.5,-0.5C 3092.5,600.5 3092.5,1201.5 3092.5,1802.5C 2061.5,1802.5 1030.5,1802.5 -0.5,1802.5C -0.5,1201.5 -0.5,600.5 -0.5,-0.5 Z"/></g>
<g><path style="opacity:1" fill="#fefefe" d="M 1489.5,125.5 C 1688.03,119.523 1881.7,147.023 2070.5,208C 2182.9,245.203 2287.57,297.203 2384.5,364C 2463.79,419.627 2530.63,487.46 2585,567.5C 2631.07,637.354 2658.73,714.021 2668,797.5C 2675.32,897.577 2654.32,991.243 2605,1078.5C 2563.86,1148.34 2512.36,1209.84 2450.5,1263C 2366.91,1333.45 2274.24,1389.79 2172.5,1432C 2011.88,1498.09 1844.88,1537.09 1671.5,1549C 1580.1,1555.29 1488.77,1554.96 1397.5,1548C 1290.73,1609.38 1183.73,1670.22 1076.5,1730.5C 1049.14,1641.07 1021.48,1551.74 993.5,1462.5C 890.869,1425.69 794.869,1376.52 705.5,1315C 626.206,1259.37 559.373,1191.54 505,1111.5C 456.281,1036.68 428.281,954.678 421,865.5C 417.021,771.061 438.355,682.727 485,600.5C 531.818,520.99 591.651,452.49 664.5,395C 750.192,328.625 843.859,275.292 945.5,235C 1085,180.801 1229.33,146.801 1378.5,133C 1415.6,129.653 1452.6,127.153 1489.5,125.5 Z"/></g>
</svg>
