<?xml version="1.0" encoding="iso-8859-1"?>
<!-- Uploaded to: SVG Repo, www.svgrepo.com, Generator: SVG Repo Mixer Tools -->
<svg version="1.1" id="Layer_1" xmlns="http://www.w3.org/2000/svg" xmlns:xlink="http://www.w3.org/1999/xlink" 
	 viewBox="0 0 512 512" xml:space="preserve">
<rect x="10.498" y="123.108" style="fill:#ECEBED;" width="156.735" height="211.013"/>
<path style="fill:#F0EFF1;" d="M213.828,299.037v20.349c0,6.798-4.088,12.93-10.364,15.546l-67.23,28.012
	c-14.204,5.919-23.455,22.004-23.455,37.391v81.078h286.304v-81.078c0-15.386-9.252-31.473-23.455-37.391l-67.23-28.012
	c-6.276-2.615-10.364-8.748-10.364-15.546v-20.349H213.828z"/>
<g>
	<path style="fill:#FEBBA0;" d="M298.035,299.037v57.874c0,23.078-18.976,41.959-42.053,41.959l0,0
		c-23.078,0-42.155-18.882-42.155-41.959v-57.874"/>
	<path style="fill:#FEBBA0;" d="M349.947,179.102v-30.438c0-51.821-42.01-93.832-93.832-93.832
		c-51.823,0-93.832,42.01-93.832,93.832h-0.368v30.438c-12.923,0-23.399,10.476-23.399,23.399c0,12.923,10.476,23.399,23.399,23.399
		v17.469c1.126,14.732,8.31,27.848,19.189,35.032l56.565,32.337c11.358,7.501,25.169,7.501,36.527,0l56.396-32.337
		c10.878-7.184,18.23-20.3,19.357-35.032v-17.469c12.923,0,23.399-10.476,23.399-23.399
		C373.347,189.578,362.87,179.102,349.947,179.102z"/>
</g>
<path style="fill:#D17E49;" d="M300.708,156.189c18.275,0,35.158-5.928,48.859-15.948c-4.26-47.875-44.469-85.409-93.452-85.409
	c-47.282,0-86.388,34.973-92.879,80.46c25.074-0.116,47.129-12.976,60.04-32.434C235.179,134.035,265.349,156.189,300.708,156.189z"
	/>
<path style="fill:#FFFFFF;" d="M344.731,117.887V30.585H167.233v87.301h177.498V117.887z"/>
<rect x="354.178" y="357.103" style="fill:#FF5957;" width="147.375" height="124.31"/>
<circle style="fill:#F0EFF1;" cx="427.865" cy="419.258" r="36.917"/>
<path d="M112.78,344.57H10.497c-5.768,0-10.446-4.677-10.446-10.446V123.11c0-5.769,4.678-10.446,10.446-10.446h122.22
	c5.768,0,10.446,4.677,10.446,10.446c0,5.769-4.678,10.446-10.446,10.446H20.944v190.121h91.837c5.768,0,10.446,4.677,10.446,10.446
	S118.549,344.57,112.78,344.57z"/>
<path d="M10.583,491.861h-0.137C4.678,491.861,0,487.184,0,481.415s4.678-10.446,10.446-10.446h0.137
	c5.768,0,10.446,4.677,10.446,10.446S16.351,491.861,10.583,491.861z"/>
<path d="M294.029,215.408c-6.438,0-11.677-5.238-11.677-11.676c0-6.439,5.239-11.677,11.677-11.677
	c6.438,0,11.676,5.238,11.676,11.677C305.703,210.169,300.467,215.408,294.029,215.408z"/>
<path d="M217.834,215.408c-6.438,0-11.676-5.238-11.676-11.676c0-6.439,5.238-11.677,11.676-11.677
	c6.438,0,11.677,5.238,11.677,11.677C229.511,210.169,224.272,215.408,217.834,215.408z"/>
<path d="M255.975,272.373c-11.388,0-20.654-9.266-20.654-20.654c0-5.769,4.678-10.446,10.446-10.446h20.416
	c5.768,0,10.446,4.677,10.446,10.446C276.629,263.107,267.364,272.373,255.975,272.373z"/>
<path d="M273.181,63.777h-6.752v-6.752c0-5.769-4.678-10.446-10.446-10.446s-10.446,4.677-10.446,10.446v6.752h-6.752
	c-5.768,0-10.446,4.677-10.446,10.446s4.678,10.446,10.446,10.446h6.752v6.752c0,5.769,4.678,10.446,10.446,10.446
	s10.446-4.677,10.446-10.446v-6.752h6.752c5.768,0,10.446-4.677,10.446-10.446S278.95,63.777,273.181,63.777z"/>
<path d="M438.448,408.814v-2.484c0-5.769-4.678-10.446-10.446-10.446c-5.768,0-10.446,4.677-10.446,10.446v2.484h-2.484
	c-5.768,0-10.446,4.677-10.446,10.446s4.678,10.446,10.446,10.446h2.484v2.484c0,5.769,4.678,10.446,10.446,10.446
	c5.768,0,10.446-4.677,10.446-10.446v-2.484h2.484c5.768,0,10.446-4.677,10.446-10.446s-4.678-10.446-10.446-10.446H438.448z"/>
<path d="M427.865,371.901c-26.113,0-47.359,21.244-47.359,47.359s21.245,47.359,47.359,47.359c26.113,0,47.359-21.244,47.359-47.359
	S453.979,371.901,427.865,371.901z M427.865,445.726c-14.594,0-26.466-11.873-26.466-26.466s11.872-26.466,26.466-26.466
	c14.594,0,26.466,11.873,26.466,26.466S442.46,445.726,427.865,445.726z"/>
<path d="M501.554,346.659h-26.33V323.71c0-5.769-4.678-10.446-10.446-10.446h-73.552c-5.768,0-10.446,4.677-10.446,10.446v22.949
	h-17.08l-51.284-21.369c-2.39-0.996-3.935-3.312-3.935-5.903v-16.266l27.306-15.657c0.19-0.11,0.377-0.225,0.56-0.346
	c13.672-9.029,22.649-25.085,24.015-42.953c0.021-0.264,0.03-0.531,0.03-0.796v-8.672c13.565-4.412,23.398-17.178,23.398-32.196
	s-9.833-27.784-23.398-32.196v-21.641c0-3.082-1.255-16.021-5.216-32.593V30.585c0-5.769-4.678-10.446-10.446-10.446H167.234
	c-5.768,0-10.446,4.677-10.446,10.446v86.307c-1.532,4.806-2.876,10.977-3.543,14.706c-0.798,4.462-1.775,12.495-1.775,17.066
	v21.641c-13.565,4.412-23.398,17.178-23.398,32.196s9.833,27.784,23.398,32.196v8.672c0,0.265,0.01,0.532,0.03,0.796
	c1.372,17.94,10.286,33.997,23.847,42.953c0.187,0.124,0.377,0.241,0.572,0.352l27.462,15.7v16.217c0,2.59-1.545,4.907-3.935,5.903
	l-67.23,28.013c-17.595,7.331-29.882,26.672-29.882,47.033v70.632H44.379c-5.768,0-10.446,4.677-10.446,10.446
	s4.678,10.446,10.446,10.446h457.175c5.768,0,10.446-4.677,10.446-10.446v-124.31C512,351.336,507.322,346.659,501.554,346.659z
	 M323.883,434.648c1.39,0,2.521,1.131,2.521,2.521c0,1.39-1.13,2.521-2.521,2.521s-2.521-1.131-2.521-2.521
	C321.362,435.778,322.493,434.648,323.883,434.648z M338.401,135.161c-11.335,6.941-24.248,10.582-37.693,10.582
	c-17.538,0-34.149-6.294-47.106-17.411h83.395C337.001,128.351,338.381,135.039,338.401,135.161z M177.68,41.032h156.605v66.408
	H177.68V41.032z M186.604,269.514c-7.982-5.405-13.281-15.289-14.242-26.565V225.9c0-5.769-4.678-10.446-10.446-10.446
	c-7.142,0-12.952-5.811-12.952-12.952c0-7.141,5.811-12.952,12.952-12.952c5.768,0,10.446-4.677,10.446-10.446
	c0,0,0-29.877,0-33.977c14.84-1.799,29.476-7.598,41.322-16.791h11.675c17.566,24.061,45.404,38.303,75.349,38.303
	c13.566,0,26.711-2.884,38.793-8.429v20.896c0,5.769,4.678,10.446,10.446,10.446c7.142,0,12.952,5.811,12.952,12.952
	c0,7.141-5.811,12.952-12.952,12.952c-5.768,0-10.446,4.677-10.446,10.446v17.047c-0.948,11.047-6.441,21.17-14.417,26.57
	L269,301.677c-0.19,0.11-0.377,0.225-0.56,0.346c-7.833,5.172-17.181,5.172-25.013,0c-0.187-0.123-0.377-0.241-0.572-0.352
	L186.604,269.514z M245.537,470.968h-122.31v-70.632c0-11.774,7.32-23.703,17.026-27.748l29.027-12.095v22.849
	c-12.452,4.335-21.416,16.184-21.416,30.093v31.354c0,5.769,4.678,10.446,10.446,10.446h4.441c5.768,0,10.446-4.677,10.446-10.446
	c0-3.534-1.755-6.658-4.441-8.548v-22.806c0-6.048,4.921-10.969,10.97-10.969s10.97,4.92,10.97,10.969v23.767
	c-2.011,1.904-3.265,4.598-3.265,7.587c0,5.769,4.678,10.446,10.446,10.446h3.265c5.768,0,10.446-4.677,10.446-10.446v-31.354
	c0-13.91-8.964-25.758-21.416-30.093v-31.554l13.21-5.504v10.627c0,25.334,18.138,46.523,42.155,51.364L245.537,470.968
	L245.537,470.968z M224.273,356.912v-41.797l7.938,4.538c7.333,4.762,15.526,7.143,23.721,7.143c8.197,0,16.393-2.383,23.727-7.147
	l7.93-4.547v41.811c0,17.376-14.179,31.513-31.607,31.513C238.499,388.424,224.273,374.288,224.273,356.912z M343.731,470.968
	h-77.302v-62.696c23.96-4.848,42.053-26.034,42.053-51.361v-10.627l4.955,2.064v67.875c-7.68,3.846-12.967,11.787-12.967,20.945
	c0,12.909,10.504,23.413,23.413,23.413c8.359,0,15.705-4.406,19.848-11.016V470.968z M343.731,424.77
	c-2.284-3.642-5.539-6.612-9.402-8.547v-59.17l9.402,3.917V424.77z M401.673,334.156h52.659v12.503h-52.659V334.156z
	 M491.108,470.968H364.623V367.551h126.485V470.968z"/>
<path d="M142.816,344.57h-0.174c-5.768,0-10.446-4.677-10.446-10.446s4.678-10.446,10.446-10.446h0.174
	c5.768,0,10.446,4.677,10.446,10.446S148.584,344.57,142.816,344.57z"/>
<path d="M56.461,170.118H36.613c-5.768,0-10.446-4.677-10.446-10.446s4.678-10.446,10.446-10.446h19.848
	c5.768,0,10.446,4.677,10.446,10.446S62.229,170.118,56.461,170.118z"/>
<path d="M56.461,212.948H36.613c-5.768,0-10.446-4.677-10.446-10.446s4.678-10.446,10.446-10.446h19.848
	c5.768,0,10.446,4.677,10.446,10.446S62.229,212.948,56.461,212.948z"/>
<path d="M56.461,255.777H36.613c-5.768,0-10.446-4.677-10.446-10.446s4.678-10.446,10.446-10.446h19.848
	c5.768,0,10.446,4.677,10.446,10.446S62.229,255.777,56.461,255.777z"/>
<path d="M56.461,298.606H36.613c-5.768,0-10.446-4.677-10.446-10.446s4.678-10.446,10.446-10.446h19.848
	c5.768,0,10.446,4.677,10.446,10.446S62.229,298.606,56.461,298.606z"/>
<path d="M139.508,298.606H119.66c-5.768,0-10.446-4.677-10.446-10.446s4.678-10.446,10.446-10.446h19.848
	c5.768,0,10.446,4.677,10.446,10.446S145.276,298.606,139.508,298.606z"/>
<path d="M139.508,255.777H119.66c-5.768,0-10.446-4.677-10.446-10.446s4.678-10.446,10.446-10.446h19.848
	c5.768,0,10.446,4.677,10.446,10.446S145.276,255.777,139.508,255.777z"/>
<path d="M88.865,298.606c-5.768,0-10.446-4.677-10.446-10.446V159.672c0-5.769,4.678-10.446,10.446-10.446
	s10.446,4.677,10.446,10.446V288.16C99.311,293.93,94.634,298.606,88.865,298.606z"/>
</svg>