<?xml version="1.0" encoding="iso-8859-1"?>
<!-- Uploaded to: SVG Repo, www.svgrepo.com, Generator: SVG Repo Mixer Tools -->
<svg height="800px" width="800px" version="1.1" id="Layer_1" xmlns="http://www.w3.org/2000/svg" xmlns:xlink="http://www.w3.org/1999/xlink" 
	 viewBox="0 0 512 512" xml:space="preserve">
<path d="M512,184.88v198c0,35.2-28.8,64-64,64H64c-35.2,0-64-28.8-64-64v-198c0-35.2,28.8-64,64-64h384
	C483.2,120.88,512,149.68,512,184.88z"/>
<path style="fill:#666666;" d="M429.336,149.88v264H68.416v-264H429.336 M437.336,141.88H60.416v280h376.92V141.88L437.336,141.88z"
	/>
<g>
	<circle style="fill:#CCCCCC;" cx="30.176" cy="283.88" r="12"/>
	<path style="fill:#CCCCCC;" d="M488.272,256.752v54.264c0,7.496-6.064,13.568-13.568,13.568c-7.496,0-13.568-6.064-13.568-13.568
		v-54.264c0-7.496,6.064-13.568,13.568-13.568C482.208,243.184,488.272,249.256,488.272,256.752z"/>
</g>
<path style="fill:#32BEA6;" d="M241.232,336.192l-13.296-49.344c-16.584-0.248-29.656-3.864-39.248-10.84
	c-9.584-6.976-16.088-16.832-19.52-29.552c-3.472-12.88-2.328-24.784,3.44-35.736c5.768-10.944,15.224-18.904,28.376-23.88
	l-3.144-11.656l17.08-4.6l3.144,11.656c12.88-1.872,23.968-0.288,33.24,4.752s16.52,13.176,21.736,24.4l-28.752,11.92
	c-4.304-8.776-10.712-13.792-19.216-15.04l12.408,46.056c20.216,0.032,34.84,3.184,43.864,9.472
	c9.016,6.28,15.248,15.784,18.68,28.504c3.832,14.208,2.76,27.352-3.224,39.408c-5.976,12.056-16.32,21.24-31.032,27.568
	l5.936,22.024l-17.08,4.6l-5.776-21.44c-14.032,2.016-26.424-0.08-37.192-6.272c-10.768-6.192-19.416-16.704-25.936-31.536
	l29.856-11.584c2.944,5.944,6.76,10.736,11.448,14.352C231.704,333.032,236.44,335.296,241.232,336.192z M207.904,212.52
	c-4.216,2.816-7.184,6.48-8.912,11c-1.736,4.512-1.984,9.04-0.76,13.592c1.12,4.16,3.416,7.688,6.896,10.592
	c3.48,2.896,8.064,4.76,13.76,5.576L207.904,212.52z M258.76,333.24c5.584-2.688,9.64-6.704,12.16-12.064
	c2.52-5.344,2.984-10.976,1.392-16.864c-1.416-5.264-4.192-9.368-8.32-12.352c-4.128-2.968-9.992-4.52-17.616-4.664L258.76,333.24z"
	/>
<g>
	<path style="fill:#FF583E;" d="M351.376,276.528l4.632-33.568c-10.056-4.44-17.112-10.024-21.16-16.76
		c-4.048-6.736-5.472-14.432-4.28-23.088c1.208-8.76,4.984-15.736,11.336-20.928s14.184-7.608,23.496-7.248l1.096-7.928
		l11.616,1.608l-1.096,7.928c8.352,2.184,14.712,6.016,19.072,11.496c4.36,5.472,6.68,12.312,6.968,20.512l-20.64-0.152
		c-0.36-6.472-2.976-11.192-7.848-14.152l-4.328,31.328c12.336,5.24,20.448,10.952,24.336,17.12
		c3.88,6.168,5.232,13.584,4.04,22.232c-1.336,9.664-5.384,17.416-12.152,23.232c-6.76,5.816-15.456,8.752-26.072,8.808
		l-2.072,14.984l-11.616-1.608l2.016-14.584c-9.088-2.392-16.112-6.88-21.088-13.448c-4.976-6.56-7.536-15.216-7.688-25.96
		l21.224,0.64c0.264,4.392,1.352,8.304,3.28,11.72C346.376,272.136,348.68,274.744,351.376,276.528z M362.992,192.4
		c-3.304,0.632-6.064,2.104-8.288,4.408s-3.552,5.008-3.976,8.104c-0.392,2.832,0.096,5.576,1.472,8.248
		c1.376,2.672,3.696,4.984,6.96,6.96L362.992,192.4z M362.84,279.256c4.104-0.192,7.624-1.6,10.544-4.224
		c2.92-2.616,4.656-5.928,5.208-9.936c0.496-3.576-0.136-6.808-1.888-9.688c-1.752-2.88-4.936-5.344-9.552-7.4L362.84,279.256z"/>
	<path style="fill:#FF583E;" d="M119.592,174.64l4.632-33.568c-10.056-4.44-17.112-10.024-21.16-16.76
		c-4.048-6.736-5.472-14.432-4.28-23.088c1.208-8.76,4.984-15.736,11.336-20.928s14.184-7.608,23.496-7.248l1.096-7.928
		l11.616,1.608l-1.096,7.928c8.352,2.184,14.712,6.016,19.072,11.496c4.36,5.472,6.68,12.312,6.968,20.512l-20.64-0.152
		c-0.36-6.472-2.976-11.192-7.848-14.152l-4.328,31.328c12.336,5.24,20.448,10.952,24.336,17.12
		c3.88,6.168,5.232,13.584,4.04,22.232c-1.336,9.664-5.384,17.416-12.152,23.232c-6.76,5.816-15.456,8.752-26.072,8.808
		l-2.072,14.984l-11.616-1.608l2.016-14.584c-9.088-2.392-16.112-6.88-21.088-13.448c-4.976-6.56-7.536-15.216-7.688-25.96
		l21.224,0.64c0.264,4.392,1.352,8.304,3.28,11.72C114.584,170.256,116.896,172.856,119.592,174.64z M131.208,90.512
		c-3.304,0.632-6.064,2.104-8.288,4.408s-3.552,5.008-3.976,8.104c-0.392,2.832,0.096,5.576,1.472,8.248s3.696,4.984,6.96,6.96
		L131.208,90.512z M131.056,177.376c4.104-0.192,7.624-1.6,10.544-4.224c2.92-2.616,4.656-5.928,5.208-9.936
		c0.496-3.576-0.136-6.808-1.888-9.688s-4.936-5.344-9.552-7.4L131.056,177.376z"/>
</g>
</svg>