<?xml version="1.0" encoding="iso-8859-1"?>
<!-- Uploaded to: SVG Repo, www.svgrepo.com, Generator: SVG Repo Mixer Tools -->
<svg version="1.1" id="Layer_1" xmlns="http://www.w3.org/2000/svg" xmlns:xlink="http://www.w3.org/1999/xlink" 
	 viewBox="0 0 512 512" xml:space="preserve">
<path style="fill:#FFD652;" d="M488.149,90.104H189.217c-13.152,0-23.851,10.699-23.851,23.851v184.447
	c0,13.152,10.699,23.851,23.851,23.851h298.932c13.152,0,23.851-10.699,23.851-23.851V113.954
	C512,100.803,501.301,90.104,488.149,90.104z"/>
<path style="fill:#FB9D46;" d="M189.217,90.104c-13.152,0-23.851,10.699-23.851,23.851v184.447
	c0,13.152,10.699,23.851,23.851,23.851h130.385V90.104H189.217z"/>
<path style="fill:#FFFFFF;" d="M230.029,254.94h219.429c4.391,0,7.95-3.56,7.95-7.95v-22.261c0-4.391-3.56-7.95-7.95-7.95H230.029
	c-4.391,0-7.95,3.56-7.95,7.95v22.261C222.079,251.38,225.638,254.94,230.029,254.94z"/>
<rect x="222.079" y="216.778" style="fill:#E5E5E5;" width="97.524" height="38.161"/>
<rect x="173.317" y="151.056" style="fill:#5AC779;" width="338.683" height="42.402"/>
<rect x="173.317" y="151.056" style="fill:#00A085;" width="146.286" height="42.402"/>
<path style="fill:#FB9D46;" d="M448.928,288.331H347.164c-4.391,0-7.95-3.56-7.95-7.95s3.56-7.95,7.95-7.95h101.764
	c4.391,0,7.95,3.56,7.95,7.95S453.318,288.331,448.928,288.331z"/>
<path style="fill:#666666;" d="M280.381,39.222H23.851C10.699,39.222,0,49.921,0,63.072v421.896
	c0,13.152,10.699,23.851,23.851,23.851h256.53c13.152,0,23.851-10.699,23.851-23.851V63.072
	C304.232,49.921,293.533,39.222,280.381,39.222z"/>
<path style="fill:#4C4C4C;" d="M27.031,484.969V63.072c0-13.152,10.699-23.851,23.851-23.851H23.851
	C10.699,39.222,0,49.921,0,63.072v421.896c0,13.152,10.699,23.851,23.851,23.851h27.031C37.73,508.82,27.031,498.121,27.031,484.969
	z"/>
<path style="fill:#AFF078;" d="M246.46,314.302H57.772c-8.781,0-15.901-7.119-15.901-15.901v-57.242
	c0-8.781,7.119-15.901,15.901-15.901H246.46c8.781,0,15.901,7.119,15.901,15.901v57.242
	C262.36,307.183,255.241,314.302,246.46,314.302z"/>
<g>
	<path style="fill:#F2F2F2;" d="M246.46,225.259h-7.95l-89.043,89.043h36.571l76.046-76.046
		C260.717,230.863,254.249,225.259,246.46,225.259z"/>
	<polygon style="fill:#F2F2F2;" points="194.518,225.259 105.474,314.302 135.685,314.302 224.729,225.259 	"/>
</g>
<g>
	<path style="fill:#4C4C4C;" d="M75.793,409.176c-17.243,0-31.271-14.029-31.271-31.271c0-17.243,14.029-31.271,31.271-31.271
		s31.271,14.029,31.271,31.271C107.064,395.147,93.036,409.176,75.793,409.176z M75.793,362.534
		c-8.475,0-15.371,6.896-15.371,15.371c0,8.475,6.896,15.371,15.371,15.371s15.371-6.896,15.371-15.371
		C91.164,369.43,84.268,362.534,75.793,362.534z"/>
	<path style="fill:#4C4C4C;" d="M228.439,409.176c-17.243,0-31.271-14.029-31.271-31.271c0-17.243,14.029-31.271,31.271-31.271
		s31.271,14.029,31.271,31.271C259.71,395.147,245.682,409.176,228.439,409.176z M228.439,362.534
		c-8.475,0-15.371,6.896-15.371,15.371c0,8.475,6.896,15.371,15.371,15.371c8.475,0,15.371-6.896,15.371-15.371
		C243.81,369.43,236.914,362.534,228.439,362.534z"/>
	<path style="fill:#4C4C4C;" d="M152.116,409.176c-17.243,0-31.271-14.029-31.271-31.271c0-17.243,14.029-31.271,31.271-31.271
		c17.243,0,31.271,14.029,31.271,31.271C183.387,395.147,169.359,409.176,152.116,409.176z M152.116,362.534
		c-8.475,0-15.371,6.896-15.371,15.371c0,8.475,6.896,15.371,15.371,15.371c8.475,0,15.371-6.896,15.371-15.371
		C167.487,369.43,160.591,362.534,152.116,362.534z"/>
	<path style="fill:#4C4C4C;" d="M75.793,481.259c-17.243,0-31.271-14.029-31.271-31.271c0-17.243,14.029-31.271,31.271-31.271
		s31.271,14.029,31.271,31.271C107.064,467.23,93.036,481.259,75.793,481.259z M75.793,434.617c-8.475,0-15.371,6.896-15.371,15.371
		c0,8.475,6.896,15.371,15.371,15.371s15.371-6.896,15.371-15.371C91.164,441.513,84.268,434.617,75.793,434.617z"/>
	<path style="fill:#4C4C4C;" d="M228.439,481.259c-17.243,0-31.271-14.029-31.271-31.271c0-17.243,14.029-31.271,31.271-31.271
		s31.271,14.029,31.271,31.271C259.71,467.23,245.682,481.259,228.439,481.259z M228.439,434.617
		c-8.475,0-15.371,6.896-15.371,15.371c0,8.475,6.896,15.371,15.371,15.371c8.475,0,15.371-6.896,15.371-15.371
		C243.81,441.513,236.914,434.617,228.439,434.617z"/>
	<path style="fill:#4C4C4C;" d="M152.116,481.259c-17.243,0-31.271-14.029-31.271-31.271c0-17.243,14.029-31.271,31.271-31.271
		c17.243,0,31.271,14.029,31.271,31.271C183.387,467.23,169.359,481.259,152.116,481.259z M152.116,434.617
		c-8.475,0-15.371,6.896-15.371,15.371c0,8.475,6.896,15.371,15.371,15.371c8.475,0,15.371-6.896,15.371-15.371
		C167.487,441.513,160.591,434.617,152.116,434.617z"/>
</g>
<g>
	<circle style="fill:#B2B2B2;" cx="75.793" cy="377.905" r="23.321"/>
	<circle style="fill:#B2B2B2;" cx="228.439" cy="377.905" r="23.321"/>
	<circle style="fill:#B2B2B2;" cx="152.116" cy="377.905" r="23.321"/>
</g>
<circle style="fill:#FF7452;" cx="75.793" cy="449.988" r="23.321"/>
<circle style="fill:#5AC779;" cx="228.439" cy="449.988" r="23.321"/>
<circle style="fill:#FFD652;" cx="152.116" cy="449.988" r="23.321"/>
<path style="fill:#F2F2F2;" d="M231.619,3.18H72.613c-13.152,0-23.851,10.699-23.851,23.851v170.137H255.47V27.031
	C255.47,13.879,244.771,3.18,231.619,3.18z"/>
<path style="fill:#E5E5E5;" d="M103.412,3.18H72.613c-13.152,0-23.851,10.699-23.851,23.851v170.137h178.299L103.412,3.18z"/>
<path style="fill:#4C4C4C;" d="M266.6,199.288H37.631c-4.391,0-7.95-3.56-7.95-7.95s3.56-7.95,7.95-7.95H266.6
	c4.391,0,7.95,3.56,7.95,7.95S270.991,199.288,266.6,199.288z"/>
<g>
	<path style="fill:#999999;" d="M160.596,55.122h-59.362c-4.391,0-7.95-3.56-7.95-7.95s3.56-7.95,7.95-7.95h59.362
		c4.391,0,7.95,3.56,7.95,7.95S164.987,55.122,160.596,55.122z"/>
	<path style="fill:#999999;" d="M202.998,106.004H101.234c-4.391,0-7.95-3.56-7.95-7.95c0-4.391,3.56-7.95,7.95-7.95h101.764
		c4.391,0,7.95,3.56,7.95,7.95C210.948,102.445,207.389,106.004,202.998,106.004z"/>
	<path style="fill:#999999;" d="M202.998,159.006H101.234c-4.391,0-7.95-3.56-7.95-7.95c0-4.391,3.56-7.95,7.95-7.95h101.764
		c4.391,0,7.95,3.56,7.95,7.95C210.948,155.447,207.389,159.006,202.998,159.006z"/>
</g>
</svg>