<svg version="1.1" id="Layer_1" xmlns="http://www.w3.org/2000/svg" xmlns:xlink="http://www.w3.org/1999/xlink" x="0px" y="0px"
	 width="100%" viewBox="0 0 512 512" enable-background="new 0 0 512 512" xml:space="preserve">
<path fill="#000000" opacity="1.000000" stroke="none" 
	d="
M295.000000,513.000000 
	C196.690536,513.000000 98.881065,513.000000 1.035801,513.000000 
	C1.035801,342.398834 1.035801,171.797684 1.035801,1.098256 
	C171.559479,1.098256 342.119049,1.098256 512.839294,1.098256 
	C512.839294,171.666550 512.839294,342.333252 512.839294,513.000000 
	C440.464325,513.000000 367.982147,513.000000 295.000000,513.000000 
M97.975822,348.514069 
	C106.694214,349.976562 109.369026,355.256439 108.141945,363.633148 
	C107.728386,366.456360 108.590637,369.598114 109.403748,372.441589 
	C111.029617,378.127380 115.894737,380.831757 123.623428,381.039825 
	C125.687065,381.095398 128.270615,379.962708 129.043961,383.665100 
	C131.154999,393.771942 136.582169,397.990540 146.878799,397.992096 
	C195.040970,397.999268 243.206512,397.679840 291.363159,398.195862 
	C305.050873,398.342499 311.211517,389.129852 311.115540,378.150452 
	C310.796478,341.656677 311.056641,305.158112 310.911652,268.662109 
	C310.894836,264.425842 311.845459,262.507233 316.438995,262.917786 
	C320.572266,263.287231 324.791931,263.294769 328.923737,262.917328 
	C333.743256,262.476990 335.130676,264.170013 335.109680,269.025208 
	C334.927338,311.187134 335.406128,353.355774 334.819946,395.510345 
	C334.562042,414.059875 350.572113,431.777893 370.554413,431.034607 
	C377.282776,430.784332 384.028290,430.994995 391.771606,430.994995 
	C389.427795,433.227356 387.746063,434.573242 386.370026,436.180786 
	C376.785095,447.378265 370.667053,459.987457 371.019745,475.098236 
	C371.314972,487.747314 383.635651,500.868042 395.711029,500.940155 
	C423.207489,501.104340 450.706146,501.095398 478.202728,500.943115 
	C489.687805,500.879517 502.213959,489.075928 502.980835,478.134949 
	C504.543610,455.838776 492.531738,434.852203 472.376953,424.713013 
	C468.917908,422.972870 465.412964,421.323944 461.798157,419.569244 
	C479.612396,403.935333 483.264374,378.224213 465.602295,359.522278 
	C453.110046,346.294495 430.022614,343.136414 413.546783,355.339478 
	C403.962067,362.438507 398.463409,372.316986 397.326233,384.049164 
	C396.066010,397.051056 400.854004,408.260834 410.888336,417.970276 
	C395.674622,417.970276 381.513184,418.341339 367.382233,417.844971 
	C357.299530,417.490784 348.055359,407.217743 348.034546,397.073273 
	C347.945892,353.910828 348.025818,310.748047 347.941010,267.585602 
	C347.934265,264.154907 348.977722,262.879120 352.509521,262.934265 
	C363.505798,263.106049 374.506500,262.996033 385.505463,262.995331 
	C387.377716,262.995209 389.249939,262.995300 392.114105,262.995300 
	C390.456482,264.860199 389.762177,265.787628 388.925232,266.560547 
	C379.420807,275.337524 373.981628,286.181885 371.477081,298.852264 
	C367.882507,317.037231 380.278107,333.665405 398.711273,333.907593 
	C424.204498,334.242554 449.706543,334.138245 475.202545,333.935028 
	C489.030853,333.824799 501.759613,322.778900 502.971222,310.564056 
	C505.110535,288.996704 491.765900,267.637817 474.102356,258.093140 
	C470.104645,255.932922 465.878296,254.195877 461.190460,251.998398 
	C470.758606,244.621323 475.893829,235.119217 476.912872,223.687347 
	C477.936340,212.206757 474.491730,201.801010 466.712555,193.344254 
	C451.898560,177.239914 429.399414,175.651413 411.347260,189.487991 
	C402.902496,195.960693 398.613037,205.350510 397.374115,215.699005 
	C395.759338,229.187042 400.913330,240.620758 410.542023,250.417130 
	C409.513153,250.720169 409.069885,250.964417 408.626251,250.965027 
	C389.794891,250.990433 370.963074,250.934174 352.132446,251.055298 
	C348.707703,251.077316 347.950043,249.609634 347.954529,246.538040 
	C348.017365,203.375504 347.919373,160.212570 348.075775,117.050491 
	C348.101044,110.077400 351.366058,104.356186 357.207520,100.214195 
	C367.771301,92.723755 379.533905,97.330261 391.674835,95.758919 
	C378.496002,108.893791 370.564270,122.975838 370.993134,140.847534 
	C371.280334,152.815582 383.917938,165.887680 395.848328,165.948608 
	C423.345032,166.089081 450.843689,166.111694 478.339996,165.934830 
	C490.027374,165.859650 502.021332,154.743271 502.939819,143.530350 
	C504.281036,127.156738 498.767761,113.159424 487.707184,101.236397 
	C480.563202,93.535339 471.721527,88.449738 461.574677,85.253288 
	C484.307465,63.380939 478.803650,38.477394 465.699158,24.688654 
	C452.436646,10.733602 428.239197,8.724279 413.185974,20.484051 
	C404.008301,27.653776 398.612976,37.341141 397.292206,48.921303 
	C395.783447,62.149708 401.175629,73.094032 410.544586,83.005074 
	C396.316223,83.005074 382.991272,82.999207 369.666351,83.006805 
	C357.618408,83.013680 348.262177,88.320480 341.156158,97.781273 
	C336.822601,103.550896 334.976532,110.165520 334.983765,117.396324 
	C335.026459,160.058960 334.948212,202.721832 335.090973,245.384033 
	C335.105377,249.686401 334.045654,251.456223 329.515137,251.084442 
	C325.045654,250.717697 320.507294,250.774582 316.027527,251.072327 
	C312.025665,251.338303 310.885559,249.835831 310.919952,245.928482 
	C311.087158,226.931747 311.165710,207.929642 310.823883,188.937576 
	C310.768158,185.841141 309.216522,182.033661 307.056274,179.828217 
	C287.350342,159.710037 267.448456,139.779907 247.320908,120.083931 
	C245.007339,117.819954 240.976486,116.209152 237.723831,116.178024 
	C207.229477,115.886215 176.731201,115.994164 146.234055,116.011765 
	C137.612839,116.016739 133.023911,119.432220 129.528305,127.577141 
	C128.881287,129.084763 126.623505,130.799454 125.043571,130.866211 
	C112.357605,131.402237 108.200424,136.655640 108.024216,149.202713 
	C107.871895,160.049164 107.375763,159.025909 98.173599,164.144653 
	C88.745743,169.388947 83.237762,166.818680 76.744415,159.588043 
	C70.072037,152.158051 62.547985,152.416046 54.976131,159.599136 
	C49.779190,164.529221 44.658291,169.562180 39.827023,174.845123 
	C37.525223,177.362106 35.308624,180.338959 34.220242,183.508209 
	C31.534206,191.329605 37.029686,196.239960 41.702732,201.129883 
	C47.922352,207.638138 46.876022,207.216309 44.525875,215.592072 
	C41.437851,226.597565 35.821964,230.393143 24.431547,229.370178 
	C16.390690,228.648041 10.237582,233.884460 10.886467,243.943008 
	C11.453897,252.738922 10.970115,261.600586 11.016554,270.432831 
	C11.053798,277.516449 15.993629,282.623657 23.136019,282.966003 
	C25.796501,283.093536 28.469255,282.939972 31.134007,283.008362 
	C38.915077,283.207977 39.218769,283.533264 41.794071,290.623169 
	C43.211170,294.524506 45.122761,298.250061 46.457603,302.175171 
	C46.883068,303.426239 46.667744,305.451233 45.887470,306.455048 
	C43.244987,309.854706 40.273491,313.007416 37.325504,316.158875 
	C32.358768,321.468384 32.350018,329.726776 37.493290,334.965607 
	C42.746841,340.316772 48.395756,345.312622 53.323387,350.943726 
	C62.152027,361.032776 71.321457,359.531738 78.301445,351.353790 
	C82.947350,345.910492 88.488792,341.569244 95.840210,347.789062 
	C96.187187,348.082581 96.785988,348.078522 97.975822,348.514069 
z"/>
<path fill="#232225" opacity="1.000000" stroke="none" 
	d="
M97.621658,348.363586 
	C96.785988,348.078522 96.187187,348.082581 95.840210,347.789062 
	C88.488792,341.569244 82.947350,345.910492 78.301445,351.353790 
	C71.321457,359.531738 62.152027,361.032776 53.323387,350.943726 
	C48.395756,345.312622 42.746841,340.316772 37.493290,334.965607 
	C32.350018,329.726776 32.358768,321.468384 37.325504,316.158875 
	C40.273491,313.007416 43.244987,309.854706 45.887470,306.455048 
	C46.667744,305.451233 46.883068,303.426239 46.457603,302.175171 
	C45.122761,298.250061 43.211170,294.524506 41.794071,290.623169 
	C39.218769,283.533264 38.915077,283.207977 31.134007,283.008362 
	C28.469255,282.939972 25.796501,283.093536 23.136019,282.966003 
	C15.993629,282.623657 11.053798,277.516449 11.016554,270.432831 
	C10.970115,261.600586 11.453897,252.738922 10.886467,243.943008 
	C10.237582,233.884460 16.390690,228.648041 24.431547,229.370178 
	C35.821964,230.393143 41.437851,226.597565 44.525875,215.592072 
	C46.876022,207.216309 47.922352,207.638138 41.702732,201.129883 
	C37.029686,196.239960 31.534206,191.329605 34.220242,183.508209 
	C35.308624,180.338959 37.525223,177.362106 39.827023,174.845123 
	C44.658291,169.562180 49.779190,164.529221 54.976131,159.599136 
	C62.547985,152.416046 70.072037,152.158051 76.744415,159.588043 
	C83.237762,166.818680 88.745743,169.388947 98.173599,164.144653 
	C107.375763,159.025909 107.871895,160.049164 108.024216,149.202713 
	C108.200424,136.655640 112.357605,131.402237 125.043571,130.866211 
	C126.623505,130.799454 128.881287,129.084763 129.528305,127.577141 
	C133.023911,119.432220 137.612839,116.016739 146.234055,116.011765 
	C176.731201,115.994164 207.229477,115.886215 237.723831,116.178024 
	C240.976486,116.209152 245.007339,117.819954 247.320908,120.083931 
	C267.448456,139.779907 287.350342,159.710037 307.056274,179.828217 
	C309.216522,182.033661 310.768158,185.841141 310.823883,188.937576 
	C311.165710,207.929642 311.087158,226.931747 310.919952,245.928482 
	C310.885559,249.835831 312.025665,251.338303 316.027527,251.072327 
	C320.507294,250.774582 325.045654,250.717697 329.515137,251.084442 
	C334.045654,251.456223 335.105377,249.686401 335.090973,245.384033 
	C334.948212,202.721832 335.026459,160.058960 334.983765,117.396324 
	C334.976532,110.165520 336.822601,103.550896 341.156158,97.781273 
	C348.262177,88.320480 357.618408,83.013680 369.666351,83.006805 
	C382.991272,82.999207 396.316223,83.005074 410.544586,83.005074 
	C401.175629,73.094032 395.783447,62.149708 397.292206,48.921303 
	C398.612976,37.341141 404.008301,27.653776 413.185974,20.484051 
	C428.239197,8.724279 452.436646,10.733602 465.699158,24.688654 
	C478.803650,38.477394 484.307465,63.380939 461.574677,85.253288 
	C471.721527,88.449738 480.563202,93.535339 487.707184,101.236397 
	C498.767761,113.159424 504.281036,127.156738 502.939819,143.530350 
	C502.021332,154.743271 490.027374,165.859650 478.339996,165.934830 
	C450.843689,166.111694 423.345032,166.089081 395.848328,165.948608 
	C383.917938,165.887680 371.280334,152.815582 370.993134,140.847534 
	C370.564270,122.975838 378.496002,108.893791 391.674835,95.758919 
	C379.533905,97.330261 367.771301,92.723755 357.207520,100.214195 
	C351.366058,104.356186 348.101044,110.077400 348.075775,117.050491 
	C347.919373,160.212570 348.017365,203.375504 347.954529,246.538040 
	C347.950043,249.609634 348.707703,251.077316 352.132446,251.055298 
	C370.963074,250.934174 389.794891,250.990433 408.626251,250.965027 
	C409.069885,250.964417 409.513153,250.720169 410.542023,250.417130 
	C400.913330,240.620758 395.759338,229.187042 397.374115,215.699005 
	C398.613037,205.350510 402.902496,195.960693 411.347260,189.487991 
	C429.399414,175.651413 451.898560,177.239914 466.712555,193.344254 
	C474.491730,201.801010 477.936340,212.206757 476.912872,223.687347 
	C475.893829,235.119217 470.758606,244.621323 461.190460,251.998398 
	C465.878296,254.195877 470.104645,255.932922 474.102356,258.093140 
	C491.765900,267.637817 505.110535,288.996704 502.971222,310.564056 
	C501.759613,322.778900 489.030853,333.824799 475.202545,333.935028 
	C449.706543,334.138245 424.204498,334.242554 398.711273,333.907593 
	C380.278107,333.665405 367.882507,317.037231 371.477081,298.852264 
	C373.981628,286.181885 379.420807,275.337524 388.925232,266.560547 
	C389.762177,265.787628 390.456482,264.860199 392.114105,262.995300 
	C389.249939,262.995300 387.377716,262.995209 385.505463,262.995331 
	C374.506500,262.996033 363.505798,263.106049 352.509521,262.934265 
	C348.977722,262.879120 347.934265,264.154907 347.941010,267.585602 
	C348.025818,310.748047 347.945892,353.910828 348.034546,397.073273 
	C348.055359,407.217743 357.299530,417.490784 367.382233,417.844971 
	C381.513184,418.341339 395.674622,417.970276 410.888336,417.970276 
	C400.854004,408.260834 396.066010,397.051056 397.326233,384.049164 
	C398.463409,372.316986 403.962067,362.438507 413.546783,355.339478 
	C430.022614,343.136414 453.110046,346.294495 465.602295,359.522278 
	C483.264374,378.224213 479.612396,403.935333 461.798157,419.569244 
	C465.412964,421.323944 468.917908,422.972870 472.376953,424.713013 
	C492.531738,434.852203 504.543610,455.838776 502.980835,478.134949 
	C502.213959,489.075928 489.687805,500.879517 478.202728,500.943115 
	C450.706146,501.095398 423.207489,501.104340 395.711029,500.940155 
	C383.635651,500.868042 371.314972,487.747314 371.019745,475.098236 
	C370.667053,459.987457 376.785095,447.378265 386.370026,436.180786 
	C387.746063,434.573242 389.427795,433.227356 391.771606,430.994995 
	C384.028290,430.994995 377.282776,430.784332 370.554413,431.034607 
	C350.572113,431.777893 334.562042,414.059875 334.819946,395.510345 
	C335.406128,353.355774 334.927338,311.187134 335.109680,269.025208 
	C335.130676,264.170013 333.743256,262.476990 328.923737,262.917328 
	C324.791931,263.294769 320.572266,263.287231 316.438995,262.917786 
	C311.845459,262.507233 310.894836,264.425842 310.911652,268.662109 
	C311.056641,305.158112 310.796478,341.656677 311.115540,378.150452 
	C311.211517,389.129852 305.050873,398.342499 291.363159,398.195862 
	C243.206512,397.679840 195.040970,397.999268 146.878799,397.992096 
	C136.582169,397.990540 131.154999,393.771942 129.043961,383.665100 
	C128.270615,379.962708 125.687065,381.095398 123.623428,381.039825 
	C115.894737,380.831757 111.029617,378.127380 109.403748,372.441589 
	C108.590637,369.598114 107.728386,366.456360 108.141945,363.633148 
	C109.369026,355.256439 106.694214,349.976562 97.621658,348.363586 
M141.255539,381.731781 
	C142.166275,386.047821 145.540405,385.673157 148.733383,385.672943 
	C196.054398,385.669739 243.375427,385.673859 290.696442,385.666809 
	C297.790436,385.665771 298.272034,385.165955 298.272552,377.909393 
	C298.276855,317.925018 298.275085,257.940613 298.275146,197.956223 
	C298.275146,196.314789 298.275146,194.673355 298.275146,192.560120 
	C296.217224,192.560120 294.581116,192.560135 292.945007,192.560120 
	C279.448517,192.559982 265.952026,192.569366 252.455536,192.557007 
	C239.529114,192.545151 234.148453,187.229156 234.137253,174.459274 
	C234.125275,160.796173 234.142838,147.133041 234.123413,133.469955 
	C234.121124,131.870773 233.965927,130.271820 233.863510,128.329239 
	C232.167572,128.329239 230.863052,128.329239 229.558548,128.329239 
	C202.565582,128.329224 175.572601,128.321991 148.579636,128.334396 
	C142.046844,128.337402 141.206879,129.212143 141.206696,135.914322 
	C141.204498,217.559738 141.208160,299.205139 141.255539,381.731781 
M129.194992,333.500031 
	C129.194992,324.373352 129.194992,315.246643 129.194992,306.289642 
	C99.132935,296.368591 85.244110,280.547546 85.275391,256.303497 
	C85.289055,245.717926 88.344154,235.964142 94.557793,227.304214 
	C103.035423,215.488953 114.736679,208.860611 128.921204,206.485428 
	C128.921204,185.535690 128.921204,164.957779 128.921204,144.204315 
	C126.237625,144.204315 123.829926,144.204315 121.171646,144.204315 
	C120.832336,149.707245 120.413086,154.990158 120.204582,160.281357 
	C119.957199,166.559113 116.754295,170.346237 110.968239,172.507462 
	C105.064171,174.712784 99.242645,177.165314 93.491859,179.747635 
	C87.413559,182.477005 82.900887,181.993576 77.877296,177.534897 
	C73.925858,174.027817 70.039436,170.447449 66.640091,167.367172 
	C59.723919,174.236603 53.158558,180.757584 46.398598,187.471863 
	C49.699642,191.119446 53.248524,195.068573 56.828430,198.989380 
	C61.018673,203.578629 61.537922,208.558563 58.964523,214.191132 
	C56.345768,219.923004 53.946308,225.765762 51.706402,231.657120 
	C49.306099,237.970337 45.834267,240.722977 39.121662,241.110046 
	C33.854641,241.413742 28.589745,241.754227 23.357067,242.076340 
	C23.357067,251.726379 23.357067,260.936523 23.357067,271.110138 
	C28.669415,271.110138 33.643040,270.956512 38.603500,271.146576 
	C45.842762,271.423981 49.365669,274.359375 51.859276,281.154266 
	C53.858997,286.603363 56.019093,292.013550 58.470634,297.271973 
	C61.765018,304.338196 61.407295,308.259491 56.200321,314.109528 
	C52.817581,317.910034 49.379131,321.660950 46.751091,324.565887 
	C53.691814,331.505280 60.235256,338.047455 66.951736,344.762634 
	C70.406265,341.617279 74.314194,338.008331 78.278831,334.462799 
	C82.733734,330.478821 87.610191,329.963043 93.073814,332.417145 
	C99.125969,335.135590 105.286301,337.625031 111.466492,340.043030 
	C116.818947,342.137177 119.854607,345.779968 120.163391,351.614838 
	C120.452049,357.069458 120.836746,362.519012 121.189880,368.141205 
	C123.903946,368.141205 126.301849,368.141205 129.195023,368.141205 
	C129.195023,356.743500 129.195023,345.621796 129.194992,333.500031 
M385.425964,462.096832 
	C384.854523,464.690918 384.154999,467.264404 383.734344,469.882690 
	C382.106598,480.014069 388.479309,488.582550 398.612976,488.701172 
	C424.257843,489.001434 449.910187,488.971008 475.556061,488.719055 
	C485.276611,488.623596 491.933014,480.442505 490.884094,470.996765 
	C488.835175,452.545746 475.171844,435.834625 456.898651,432.241089 
	C446.297821,430.156342 434.993652,430.001495 424.186340,430.976624 
	C405.229645,432.687012 392.500610,443.569214 385.425964,462.096832 
M424.500000,153.882538 
	C441.141693,153.881424 457.784149,153.975632 474.424805,153.844284 
	C484.803467,153.762390 491.914764,145.969406 490.889740,136.193146 
	C488.967712,117.862183 475.233551,100.958443 457.074158,97.313141 
	C446.646790,95.219948 435.544464,95.165092 424.867462,95.917320 
	C403.269348,97.438957 387.076080,113.375877 383.717133,134.882874 
	C382.063019,145.474060 388.752167,153.607834 399.536743,153.840469 
	C407.521088,154.012695 415.511993,153.879562 424.500000,153.882538 
M445.356628,262.935638 
	C440.032104,262.943054 434.706421,262.881561 429.383209,262.969727 
	C405.484711,263.365509 387.245148,279.265350 383.625641,302.806671 
	C382.086304,312.818542 388.816711,321.060944 399.023682,321.113495 
	C424.481384,321.244568 449.940674,321.244141 475.398346,321.110779 
	C485.278687,321.059052 492.096344,312.887695 490.834198,303.173370 
	C487.894958,280.550232 469.264130,263.724304 445.356628,262.935638 
M410.506287,226.602753 
	C414.505554,240.011276 425.758453,248.463211 438.441040,247.584259 
	C451.921783,246.649994 462.361542,237.120346 464.214905,224.057312 
	C466.049042,211.130020 458.776001,198.790955 446.556244,194.436493 
	C426.795532,187.394867 406.273163,203.659439 410.506287,226.602753 
M410.734680,45.571163 
	C407.965576,57.462891 411.874176,68.330719 421.336761,75.050186 
	C430.413391,81.495590 442.392883,81.803696 451.836365,75.834641 
	C461.348907,69.821938 466.065674,58.818886 464.030823,47.388081 
	C461.913239,35.492741 451.639221,26.412785 439.003357,25.269407 
	C426.782227,24.163557 415.652344,31.892113 410.734680,45.571163 
M463.559326,380.198700 
	C463.234833,379.256897 462.961365,378.293793 462.578278,377.376465 
	C457.073242,364.194122 442.967651,357.354492 429.428650,361.288086 
	C416.224731,365.124390 407.933624,378.405457 410.088379,392.268341 
	C412.151703,405.542969 424.212860,415.323059 438.093689,415.018524 
	C454.100891,414.667389 468.063965,399.339539 463.559326,380.198700 
M111.104965,227.539429 
	C98.912788,238.985580 94.499100,252.772095 100.183777,268.680450 
	C104.834183,281.694427 114.230118,289.996674 128.615265,292.998840 
	C128.615265,268.261292 128.615265,244.103882 128.615265,218.084671 
	C122.304092,221.468399 117.005760,224.309113 111.104965,227.539429 
M246.105774,158.499939 
	C246.105835,163.989670 246.335114,169.492004 246.034500,174.965225 
	C245.787384,179.464172 247.693344,180.830658 251.904129,180.662308 
	C257.551178,180.436554 263.214081,180.606735 268.870178,180.606796 
	C275.448975,180.606873 282.027771,180.606812 287.808380,180.606812 
	C273.879028,166.667252 259.898254,152.676208 246.105774,138.873596 
	C246.105774,144.607773 246.105774,151.054031 246.105774,158.499939 
z"/>
<path fill="#F9F1F1" opacity="1.000000" stroke="none" 
	d="
M141.232910,381.291168 
	C141.208160,299.205139 141.204498,217.559738 141.206696,135.914322 
	C141.206879,129.212143 142.046844,128.337402 148.579636,128.334396 
	C175.572601,128.321991 202.565582,128.329224 229.558548,128.329239 
	C230.863052,128.329239 232.167572,128.329239 233.863510,128.329239 
	C233.965927,130.271820 234.121124,131.870773 234.123413,133.469955 
	C234.142838,147.133041 234.125275,160.796173 234.137253,174.459274 
	C234.148453,187.229156 239.529114,192.545151 252.455536,192.557007 
	C265.952026,192.569366 279.448517,192.559982 292.945007,192.560120 
	C294.581116,192.560135 296.217224,192.560120 298.275146,192.560120 
	C298.275146,194.673355 298.275146,196.314789 298.275146,197.956223 
	C298.275085,257.940613 298.276855,317.925018 298.272552,377.909393 
	C298.272034,385.165955 297.790436,385.665771 290.696442,385.666809 
	C243.375427,385.673859 196.054398,385.669739 148.733383,385.672943 
	C145.540405,385.673157 142.166275,386.047821 141.232910,381.291168 
M184.500259,350.689178 
	C208.792984,350.688538 233.085800,350.718414 257.378387,350.663452 
	C262.734863,350.651337 265.473358,348.436646 265.246124,344.449707 
	C264.973602,339.668793 261.770630,338.616455 257.616821,338.622559 
	C227.334152,338.667084 197.051376,338.630524 166.768677,338.664062 
	C161.936172,338.669403 158.971161,341.030884 159.299713,344.699951 
	C159.680359,348.950562 162.541489,350.635284 166.529099,350.668243 
	C172.185928,350.714996 177.843414,350.685883 184.500259,350.689178 
M221.499954,219.131195 
	C233.811905,219.130081 246.123901,219.106537 258.435760,219.141006 
	C262.332336,219.151932 265.021271,217.591217 265.193207,213.503204 
	C265.377319,209.126022 262.582367,207.356216 258.543701,207.132431 
	C258.045929,207.104843 257.545685,207.119980 257.046570,207.119980 
	C227.264984,207.119751 197.483398,207.109573 167.701813,207.129593 
	C162.241333,207.133270 159.115784,209.518280 159.260223,213.408661 
	C159.400742,217.193573 162.157150,219.119965 167.591873,219.125000 
	C185.227875,219.141357 202.863922,219.131165 221.499954,219.131195 
M209.499954,306.880859 
	C214.657455,306.880859 219.814941,306.881042 224.972443,306.880829 
	C235.952957,306.880341 246.933914,306.935791 257.913818,306.853210 
	C262.756744,306.816803 265.471680,304.467224 265.224152,300.619965 
	C264.941101,296.219452 262.126526,294.702850 258.063477,294.868011 
	C257.731293,294.881531 257.398041,294.869171 257.065308,294.869171 
	C227.284821,294.869049 197.504318,294.867920 167.723831,294.872803 
	C166.560242,294.873016 165.055038,294.480255 164.300827,295.051697 
	C162.463837,296.443542 159.901917,298.148163 159.648026,300.002777 
	C159.394241,301.856476 161.214890,304.454895 162.842102,305.945068 
	C163.945389,306.955475 166.283936,306.836426 168.071838,306.845001 
	C181.547623,306.909637 195.023849,306.880615 209.499954,306.880859 
M223.500000,251.002670 
	C204.702621,251.002731 185.905029,251.049728 167.108017,250.966919 
	C162.875977,250.948288 159.824692,252.281860 159.340897,256.799561 
	C158.937256,260.568726 162.113907,262.983093 167.202438,262.986664 
	C197.311493,263.007874 227.420578,262.977325 257.529572,263.019775 
	C261.680511,263.025604 264.864197,261.920776 265.198517,257.197723 
	C265.482117,253.190979 262.704895,251.027969 257.436951,251.012650 
	C246.458054,250.980728 235.478989,251.002777 223.500000,251.002670 
M165.072342,165.098053 
	C178.694153,165.108810 192.316101,165.088638 205.937683,165.149399 
	C209.958557,165.167343 212.826050,163.835449 213.147324,159.428894 
	C213.428833,155.567932 210.730118,153.171951 205.935287,153.145294 
	C192.812057,153.072311 179.688156,153.133301 166.564560,153.111084 
	C163.013855,153.105087 160.216644,154.399399 159.499405,158.047729 
	C158.787216,161.670410 160.591232,164.077484 165.072342,165.098053 
z"/>
<path fill="#FDDE30" opacity="1.000000" stroke="none" 
	d="
M129.195007,334.000061 
	C129.195023,345.621796 129.195023,356.743500 129.195023,368.141205 
	C126.301849,368.141205 123.903946,368.141205 121.189880,368.141205 
	C120.836746,362.519012 120.452049,357.069458 120.163391,351.614838 
	C119.854607,345.779968 116.818947,342.137177 111.466492,340.043030 
	C105.286301,337.625031 99.125969,335.135590 93.073814,332.417145 
	C87.610191,329.963043 82.733734,330.478821 78.278831,334.462799 
	C74.314194,338.008331 70.406265,341.617279 66.951736,344.762634 
	C60.235256,338.047455 53.691814,331.505280 46.751091,324.565887 
	C49.379131,321.660950 52.817581,317.910034 56.200321,314.109528 
	C61.407295,308.259491 61.765018,304.338196 58.470634,297.271973 
	C56.019093,292.013550 53.858997,286.603363 51.859276,281.154266 
	C49.365669,274.359375 45.842762,271.423981 38.603500,271.146576 
	C33.643040,270.956512 28.669415,271.110138 23.357067,271.110138 
	C23.357067,260.936523 23.357067,251.726379 23.357067,242.076340 
	C28.589745,241.754227 33.854641,241.413742 39.121662,241.110046 
	C45.834267,240.722977 49.306099,237.970337 51.706402,231.657120 
	C53.946308,225.765762 56.345768,219.923004 58.964523,214.191132 
	C61.537922,208.558563 61.018673,203.578629 56.828430,198.989380 
	C53.248524,195.068573 49.699642,191.119446 46.398598,187.471863 
	C53.158558,180.757584 59.723919,174.236603 66.640091,167.367172 
	C70.039436,170.447449 73.925858,174.027817 77.877296,177.534897 
	C82.900887,181.993576 87.413559,182.477005 93.491859,179.747635 
	C99.242645,177.165314 105.064171,174.712784 110.968239,172.507462 
	C116.754295,170.346237 119.957199,166.559113 120.204582,160.281357 
	C120.413086,154.990158 120.832336,149.707245 121.171646,144.204315 
	C123.829926,144.204315 126.237625,144.204315 128.921204,144.204315 
	C128.921204,164.957779 128.921204,185.535690 128.921204,206.485428 
	C114.736679,208.860611 103.035423,215.488953 94.557793,227.304214 
	C88.344154,235.964142 85.289055,245.717926 85.275391,256.303497 
	C85.244110,280.547546 99.132935,296.368591 129.194992,306.289642 
	C129.194992,315.246643 129.194992,324.373352 129.195007,334.000061 
z"/>
<path fill="#2FB0D2" opacity="1.000000" stroke="none" 
	d="
M385.583466,461.731781 
	C392.500610,443.569214 405.229645,432.687012 424.186340,430.976624 
	C434.993652,430.001495 446.297821,430.156342 456.898651,432.241089 
	C475.171844,435.834625 488.835175,452.545746 490.884094,470.996765 
	C491.933014,480.442505 485.276611,488.623596 475.556061,488.719055 
	C449.910187,488.971008 424.257843,489.001434 398.612976,488.701172 
	C388.479309,488.582550 382.106598,480.014069 383.734344,469.882690 
	C384.154999,467.264404 384.854523,464.690918 385.583466,461.731781 
z"/>
<path fill="#2FB0D2" opacity="1.000000" stroke="none" 
	d="
M424.000000,153.882492 
	C415.511993,153.879562 407.521088,154.012695 399.536743,153.840469 
	C388.752167,153.607834 382.063019,145.474060 383.717133,134.882874 
	C387.076080,113.375877 403.269348,97.438957 424.867462,95.917320 
	C435.544464,95.165092 446.646790,95.219948 457.074158,97.313141 
	C475.233551,100.958443 488.967712,117.862183 490.889740,136.193146 
	C491.914764,145.969406 484.803467,153.762390 474.424805,153.844284 
	C457.784149,153.975632 441.141693,153.881424 424.000000,153.882492 
z"/>
<path fill="#2FB0D3" opacity="1.000000" stroke="none" 
	d="
M445.833832,262.949554 
	C469.264130,263.724304 487.894958,280.550232 490.834198,303.173370 
	C492.096344,312.887695 485.278687,321.059052 475.398346,321.110779 
	C449.940674,321.244141 424.481384,321.244568 399.023682,321.113495 
	C388.816711,321.060944 382.086304,312.818542 383.625641,302.806671 
	C387.245148,279.265350 405.484711,263.365509 429.383209,262.969727 
	C434.706421,262.881561 440.032104,262.943054 445.833832,262.949554 
z"/>
<path fill="#F7CEB3" opacity="1.000000" stroke="none" 
	d="
M410.376678,226.192535 
	C406.273163,203.659439 426.795532,187.394867 446.556244,194.436493 
	C458.776001,198.790955 466.049042,211.130020 464.214905,224.057312 
	C462.361542,237.120346 451.921783,246.649994 438.441040,247.584259 
	C425.758453,248.463211 414.505554,240.011276 410.376678,226.192535 
z"/>
<path fill="#F7CEB3" opacity="1.000000" stroke="none" 
	d="
M410.830109,45.168854 
	C415.652344,31.892113 426.782227,24.163557 439.003357,25.269407 
	C451.639221,26.412785 461.913239,35.492741 464.030823,47.388081 
	C466.065674,58.818886 461.348907,69.821938 451.836365,75.834641 
	C442.392883,81.803696 430.413391,81.495590 421.336761,75.050186 
	C411.874176,68.330719 407.965576,57.462891 410.830109,45.168854 
z"/>
<path fill="#F7CEB3" opacity="1.000000" stroke="none" 
	d="
M463.682709,380.584808 
	C468.063965,399.339539 454.100891,414.667389 438.093689,415.018524 
	C424.212860,415.323059 412.151703,405.542969 410.088379,392.268341 
	C407.933624,378.405457 416.224731,365.124390 429.428650,361.288086 
	C442.967651,357.354492 457.073242,364.194122 462.578278,377.376465 
	C462.961365,378.293793 463.234833,379.256897 463.682709,380.584808 
z"/>
<path fill="#000000" opacity="1.000000" stroke="none" 
	d="
M111.406197,227.344620 
	C117.005760,224.309113 122.304092,221.468399 128.615265,218.084671 
	C128.615265,244.103882 128.615265,268.261292 128.615265,292.998840 
	C114.230118,289.996674 104.834183,281.694427 100.183777,268.680450 
	C94.499100,252.772095 98.912788,238.985580 111.406197,227.344620 
z"/>
<path fill="#F7C069" opacity="1.000000" stroke="none" 
	d="
M246.105774,158.000122 
	C246.105774,151.054031 246.105774,144.607773 246.105774,138.873596 
	C259.898254,152.676208 273.879028,166.667252 287.808380,180.606812 
	C282.027771,180.606812 275.448975,180.606873 268.870178,180.606796 
	C263.214081,180.606735 257.551178,180.436554 251.904129,180.662308 
	C247.693344,180.830658 245.787384,179.464172 246.034500,174.965225 
	C246.335114,169.492004 246.105835,163.989670 246.105774,158.000122 
z"/>
<path fill="#29282B" opacity="1.000000" stroke="none" 
	d="
M184.000427,350.689178 
	C177.843414,350.685883 172.185928,350.714996 166.529099,350.668243 
	C162.541489,350.635284 159.680359,348.950562 159.299713,344.699951 
	C158.971161,341.030884 161.936172,338.669403 166.768677,338.664062 
	C197.051376,338.630524 227.334152,338.667084 257.616821,338.622559 
	C261.770630,338.616455 264.973602,339.668793 265.246124,344.449707 
	C265.473358,348.436646 262.734863,350.651337 257.378387,350.663452 
	C233.085800,350.718414 208.792984,350.688538 184.000427,350.689178 
z"/>
<path fill="#262528" opacity="1.000000" stroke="none" 
	d="
M220.999939,219.131195 
	C202.863922,219.131165 185.227875,219.141357 167.591873,219.125000 
	C162.157150,219.119965 159.400742,217.193573 159.260223,213.408661 
	C159.115784,209.518280 162.241333,207.133270 167.701813,207.129593 
	C197.483398,207.109573 227.264984,207.119751 257.046570,207.119980 
	C257.545685,207.119980 258.045929,207.104843 258.543701,207.132431 
	C262.582367,207.356216 265.377319,209.126022 265.193207,213.503204 
	C265.021271,217.591217 262.332336,219.151932 258.435760,219.141006 
	C246.123901,219.106537 233.811905,219.130081 220.999939,219.131195 
z"/>
<path fill="#262528" opacity="1.000000" stroke="none" 
	d="
M208.999939,306.880859 
	C195.023849,306.880615 181.547623,306.909637 168.071838,306.845001 
	C166.283936,306.836426 163.945389,306.955475 162.842102,305.945068 
	C161.214890,304.454895 159.394241,301.856476 159.648026,300.002777 
	C159.901917,298.148163 162.463837,296.443542 164.300827,295.051697 
	C165.055038,294.480255 166.560242,294.873016 167.723831,294.872803 
	C197.504318,294.867920 227.284821,294.869049 257.065308,294.869171 
	C257.398041,294.869171 257.731293,294.881531 258.063477,294.868011 
	C262.126526,294.702850 264.941101,296.219452 265.224152,300.619965 
	C265.471680,304.467224 262.756744,306.816803 257.913818,306.853210 
	C246.933914,306.935791 235.952957,306.880341 224.972443,306.880829 
	C219.814941,306.881042 214.657455,306.880859 208.999939,306.880859 
z"/>
<path fill="#232225" opacity="1.000000" stroke="none" 
	d="
M224.000000,251.002670 
	C235.478989,251.002777 246.458054,250.980728 257.436951,251.012650 
	C262.704895,251.027969 265.482117,253.190979 265.198517,257.197723 
	C264.864197,261.920776 261.680511,263.025604 257.529572,263.019775 
	C227.420578,262.977325 197.311493,263.007874 167.202438,262.986664 
	C162.113907,262.983093 158.937256,260.568726 159.340897,256.799561 
	C159.824692,252.281860 162.875977,250.948288 167.108017,250.966919 
	C185.905029,251.049728 204.702621,251.002731 224.000000,251.002670 
z"/>
<path fill="#262528" opacity="1.000000" stroke="none" 
	d="
M164.640289,165.060730 
	C160.591232,164.077484 158.787216,161.670410 159.499405,158.047729 
	C160.216644,154.399399 163.013855,153.105087 166.564560,153.111084 
	C179.688156,153.133301 192.812057,153.072311 205.935287,153.145294 
	C210.730118,153.171951 213.428833,155.567932 213.147324,159.428894 
	C212.826050,163.835449 209.958557,165.167343 205.937683,165.149399 
	C192.316101,165.088638 178.694153,165.108810 164.640289,165.060730 
z"/>
</svg>