<?xml version="1.0" encoding="UTF-8"?>
<!DOCTYPE svg PUBLIC "-//W3C//DTD SVG 1.1//EN" "http://www.w3.org/Graphics/SVG/1.1/DTD/svg11.dtd">
<svg xmlns="http://www.w3.org/2000/svg" version="1.1" width="512px" height="512px" style="shape-rendering:geometricPrecision; text-rendering:geometricPrecision; image-rendering:optimizeQuality; fill-rule:evenodd; clip-rule:evenodd" xmlns:xlink="http://www.w3.org/1999/xlink">
<g><path style="opacity:0.984" fill="#f9b403" d="M 180.5,69.5 C 182.836,74.8378 185.169,80.1711 187.5,85.5C 198.255,124.741 187.255,156.241 154.5,180C 132.541,192.355 109.541,194.855 85.5,187.5C 80.13,185.146 74.7966,182.813 69.5,180.5C 37.3827,158.348 25.5494,128.014 34,89.5C 49.2645,47.2874 79.4312,28.1207 124.5,32C 148.838,36.3153 167.505,48.8153 180.5,69.5 Z"/></g>
<g><path style="opacity:0.983" fill="#0a5078" d="M 441.5,180.5 C 436.855,182.488 432.188,184.488 427.5,186.5C 426.702,186.957 426.369,187.624 426.5,188.5C 395.107,197.118 367.107,190.618 342.5,169C 320.474,144.354 313.808,116.187 322.5,84.5C 325.883,80.0782 328.55,75.0782 330.5,69.5C 352.652,37.3827 382.986,25.5494 421.5,34C 463.713,49.2645 482.879,79.4312 479,124.5C 474.685,148.838 462.185,167.505 441.5,180.5 Z"/></g>
<g><path style="opacity:1" fill="#f0efef" d="M 101.5,47.5 C 138.75,45.5195 162.917,62.1862 174,97.5C 178.946,130.442 166.779,154.609 137.5,170C 106.739,181.353 80.9057,174.519 60,149.5C 40.6073,118.148 43.774,89.3149 69.5,63C 79.0555,55.388 89.7222,50.2213 101.5,47.5 Z"/></g>
<g><path style="opacity:1" fill="#009fc7" d="M 458.5,95.5 C 455.446,97.8705 452.113,99.8705 448.5,101.5C 447.516,104.428 447.183,107.428 447.5,110.5C 447.212,113.866 447.046,117.2 447,120.5C 451.516,122.422 455.516,125.089 459,128.5C 459.736,131.592 459.569,134.592 458.5,137.5C 456.012,141.806 453.512,146.139 451,150.5C 448.588,153.792 445.421,154.959 441.5,154C 438.162,152.08 434.662,150.58 431,149.5C 427.149,151.174 423.316,153.008 419.5,155C 415.961,158.387 414.628,162.553 415.5,167.5C 415.167,168.833 414.833,170.167 414.5,171.5C 413.547,173.61 411.881,174.777 409.5,175C 402.5,175.667 395.5,175.667 388.5,175C 386.676,174.34 385.343,173.173 384.5,171.5C 384.167,170.167 383.833,168.833 383.5,167.5C 384.372,162.553 383.039,158.387 379.5,155C 375.568,152.865 371.568,151.032 367.5,149.5C 364.1,150.697 360.766,152.197 357.5,154C 353.579,154.959 350.412,153.792 348,150.5C 345.488,146.139 342.988,141.806 340.5,137.5C 339.431,134.592 339.264,131.592 340,128.5C 344.336,125.265 348.503,121.932 352.5,118.5C 351.698,115.551 351.364,112.551 351.5,109.5C 351.663,107.143 351.497,104.81 351,102.5C 347.385,100.28 343.885,97.9472 340.5,95.5C 339.431,92.592 339.264,89.592 340,86.5C 342.876,80.5768 346.376,75.0768 350.5,70C 355.72,67.9191 360.387,68.9191 364.5,73C 371.093,72.6292 376.926,70.1292 382,65.5C 383.204,61.2841 383.87,56.9508 384,52.5C 384.465,51.0692 385.299,49.9025 386.5,49C 395.141,47.0294 403.808,47.0294 412.5,49C 413.701,49.9025 414.535,51.0692 415,52.5C 415.13,56.9508 415.796,61.2841 417,65.5C 420.577,68.3733 424.411,70.8733 428.5,73C 430.167,73.6667 431.833,73.6667 433.5,73C 436.838,71.0798 440.338,69.5798 444,68.5C 445.627,68.6251 447.127,69.1251 448.5,70C 452.624,75.0768 456.124,80.5768 459,86.5C 459.736,89.592 459.569,92.592 458.5,95.5 Z"/></g>
<g><path style="opacity:0.964" fill="#009fc7" d="M 330.5,69.5 C 328.55,75.0782 325.883,80.0782 322.5,84.5C 277.373,67.2284 232.373,67.5618 187.5,85.5C 185.169,80.1711 182.836,74.8378 180.5,69.5C 216.034,55.4762 252.701,51.6429 290.5,58C 304.249,60.5292 317.583,64.3626 330.5,69.5 Z"/></g>
<g><path style="opacity:1" fill="#0d5078" d="M 119.5,113.5 C 118.679,116.484 116.679,118.317 113.5,119C 101.167,119.667 88.8333,119.667 76.5,119C 75.0161,118.338 73.6828,117.504 72.5,116.5C 70.3048,111.116 71.6382,106.949 76.5,104C 85.4938,103.5 94.4938,103.334 103.5,103.5C 103.333,89.1628 103.5,74.8295 104,60.5C 107.013,55.4648 111.18,54.2981 116.5,57C 117.701,57.9025 118.535,59.0692 119,60.5C 119.5,78.1635 119.667,95.8302 119.5,113.5 Z"/></g>
<g><path style="opacity:1" fill="#00355d" d="M 430.5,104.5 C 430.66,106.199 430.494,107.866 430,109.5C 422.915,93.1998 410.415,86.0331 392.5,88C 379.651,91.6829 371.318,99.8496 367.5,112.5C 369.24,90.2589 381.24,79.4256 403.5,80C 418.109,82.114 427.109,90.2806 430.5,104.5 Z"/></g>
<g><path style="opacity:1" fill="#095078" d="M 430.5,104.5 C 432.279,131.223 419.612,144.056 392.5,143C 377.208,138.604 368.875,128.437 367.5,112.5C 371.318,99.8496 379.651,91.6829 392.5,88C 410.415,86.0331 422.915,93.1998 430,109.5C 430.494,107.866 430.66,106.199 430.5,104.5 Z"/></g>
<g><path style="opacity:1" fill="#00345c" d="M 340.5,95.5 C 343.885,97.9472 347.385,100.28 351,102.5C 351.497,104.81 351.663,107.143 351.5,109.5C 347.043,108.213 343.21,105.88 340,102.5C 339.204,99.9615 339.371,97.6282 340.5,95.5 Z"/></g>
<g><path style="opacity:1" fill="#00345d" d="M 458.5,95.5 C 459.629,97.6282 459.796,99.9615 459,102.5C 455.574,105.793 451.741,108.459 447.5,110.5C 447.183,107.428 447.516,104.428 448.5,101.5C 452.113,99.8705 455.446,97.8705 458.5,95.5 Z"/></g>
<g><path style="opacity:1" fill="#d1d1d1" d="M 119.5,113.5 C 119.737,117.273 119.237,120.94 118,124.5C 116.829,125.893 115.329,126.727 113.5,127C 101.167,127.667 88.8333,127.667 76.5,127C 72.301,124.567 70.9676,121.067 72.5,116.5C 73.6828,117.504 75.0161,118.338 76.5,119C 88.8333,119.667 101.167,119.667 113.5,119C 116.679,118.317 118.679,116.484 119.5,113.5 Z"/></g>
<g><path style="opacity:1" fill="#00345c" d="M 340.5,137.5 C 342.988,141.806 345.488,146.139 348,150.5C 350.412,153.792 353.579,154.959 357.5,154C 360.766,152.197 364.1,150.697 367.5,149.5C 371.568,151.032 375.568,152.865 379.5,155C 383.039,158.387 384.372,162.553 383.5,167.5C 379.983,163.389 375.65,160.223 370.5,158C 368.5,157.333 366.5,157.333 364.5,158C 360.387,162.081 355.72,163.081 350.5,161C 346.376,155.923 342.876,150.423 340,144.5C 339.204,141.961 339.371,139.628 340.5,137.5 Z"/></g>
<g><path style="opacity:1" fill="#00345c" d="M 458.5,137.5 C 459.629,139.628 459.796,141.961 459,144.5C 456.124,150.423 452.624,155.923 448.5,161C 447.127,161.875 445.627,162.375 444,162.5C 439.667,160.833 435.333,159.167 431,157.5C 424.859,159.477 419.692,162.811 415.5,167.5C 414.628,162.553 415.961,158.387 419.5,155C 423.316,153.008 427.149,151.174 431,149.5C 434.662,150.58 438.162,152.08 441.5,154C 445.421,154.959 448.588,153.792 451,150.5C 453.512,146.139 456.012,141.806 458.5,137.5 Z"/></g>
<g><path style="opacity:0.993" fill="#c80a50" d="M 319.5,327.5 C 319.666,320.159 319.5,312.826 319,305.5C 315.74,296.573 309.573,290.739 300.5,288C 290.839,287.5 281.172,287.334 271.5,287.5C 271.5,281.833 271.5,276.167 271.5,270.5C 278.145,267.353 282.979,262.353 286,255.5C 287.391,243.553 287.891,231.553 287.5,219.5C 287.666,213.824 287.499,208.157 287,202.5C 284.635,196.798 280.469,193.298 274.5,192C 261.167,191.333 247.833,191.333 234.5,192C 229.667,194.167 226.167,197.667 224,202.5C 223.501,208.157 223.334,213.824 223.5,219.5C 223.109,231.553 223.609,243.553 225,255.5C 228.021,262.353 232.855,267.353 239.5,270.5C 239.5,276.167 239.5,281.833 239.5,287.5C 229.494,287.334 219.494,287.5 209.5,288C 201,291.167 195.167,297 192,305.5C 191.5,312.826 191.334,320.159 191.5,327.5C 166.304,304.428 155.804,275.761 160,241.5C 167.082,202.084 189.582,175.917 227.5,163C 270.026,152.509 305.193,164.009 333,197.5C 352.69,225.905 357.023,256.572 346,289.5C 340.358,304.471 331.525,317.137 319.5,327.5 Z"/></g>
<g><path style="opacity:1" fill="#00325a" d="M 384.5,171.5 C 385.343,173.173 386.676,174.34 388.5,175C 395.5,175.667 402.5,175.667 409.5,175C 411.881,174.777 413.547,173.61 414.5,171.5C 415.954,175.262 415.288,178.762 412.5,182C 403.808,183.971 395.141,183.971 386.5,182C 383.712,178.762 383.046,175.262 384.5,171.5 Z"/></g>
<g><path style="opacity:0.964" fill="#01a0c7" d="M 69.5,180.5 C 74.7966,182.813 80.13,185.146 85.5,187.5C 72.304,220.091 68.804,253.758 75,288.5C 77.1995,300.595 80.6995,312.262 85.5,323.5C 80.1711,325.831 74.8378,328.164 69.5,330.5C 55.4762,294.966 51.6429,258.299 58,220.5C 60.5292,206.751 64.3626,193.417 69.5,180.5 Z"/></g>
<g><path style="opacity:0.966" fill="#01a0c7" d="M 441.5,180.5 C 455.524,216.034 459.357,252.701 453,290.5C 450.471,304.249 446.637,317.583 441.5,330.5C 436.162,328.165 430.828,325.832 425.5,323.5C 438.696,290.909 442.196,257.242 436,222.5C 433.741,210.893 430.575,199.56 426.5,188.5C 426.369,187.624 426.702,186.957 427.5,186.5C 432.188,184.488 436.855,182.488 441.5,180.5 Z"/></g>
<g><path style="opacity:1" fill="#124f77" d="M 287.5,219.5 C 285.75,214.581 282.416,211.081 277.5,209C 263.556,207.405 249.556,207.072 235.5,208C 229.65,210.019 225.65,213.852 223.5,219.5C 223.334,213.824 223.501,208.157 224,202.5C 226.167,197.667 229.667,194.167 234.5,192C 247.833,191.333 261.167,191.333 274.5,192C 280.469,193.298 284.635,196.798 287,202.5C 287.499,208.157 287.666,213.824 287.5,219.5 Z"/></g>
<g><path style="opacity:1" fill="#efc79f" d="M 287.5,219.5 C 287.891,231.553 287.391,243.553 286,255.5C 282.979,262.353 278.145,267.353 271.5,270.5C 260.821,271.81 250.154,271.81 239.5,270.5C 232.855,267.353 228.021,262.353 225,255.5C 223.609,243.553 223.109,231.553 223.5,219.5C 225.65,213.852 229.65,210.019 235.5,208C 249.556,207.072 263.556,207.405 277.5,209C 282.416,211.081 285.75,214.581 287.5,219.5 Z"/></g>
<g><path style="opacity:1" fill="#d2aa81" d="M 239.5,270.5 C 250.154,271.81 260.821,271.81 271.5,270.5C 271.5,276.167 271.5,281.833 271.5,287.5C 270.508,297.158 265.175,302.492 255.5,303.5C 245.825,302.492 240.492,297.158 239.5,287.5C 239.5,281.833 239.5,276.167 239.5,270.5 Z"/></g>
<g><path style="opacity:1" fill="#f9b201" d="M 239.5,287.5 C 240.492,297.158 245.825,302.492 255.5,303.5C 265.175,302.492 270.508,297.158 271.5,287.5C 281.172,287.334 290.839,287.5 300.5,288C 309.573,290.739 315.74,296.573 319,305.5C 319.5,312.826 319.666,320.159 319.5,327.5C 297.254,347.071 271.254,354.904 241.5,351C 222.293,348.226 205.627,340.393 191.5,327.5C 191.334,320.159 191.5,312.826 192,305.5C 195.167,297 201,291.167 209.5,288C 219.494,287.5 229.494,287.334 239.5,287.5 Z"/></g>
<g><path style="opacity:0.992" fill="#f9b400" d="M 187.5,425.5 C 185.146,430.87 182.813,436.203 180.5,441.5C 158.348,473.617 128.014,485.451 89.5,477C 47.2874,461.735 28.1207,431.569 32,386.5C 36.3153,362.162 48.8153,343.495 69.5,330.5C 74.8378,328.164 80.1711,325.831 85.5,323.5C 124.741,312.745 156.241,323.745 180,356.5C 192.355,378.459 194.855,401.459 187.5,425.5 Z"/></g>
<g><path style="opacity:0.992" fill="#f9b400" d="M 425.5,323.5 C 430.828,325.832 436.162,328.165 441.5,330.5C 473.617,352.652 485.451,382.986 477,421.5C 461.735,463.713 431.569,482.879 386.5,479C 362.162,474.685 343.495,462.185 330.5,441.5C 328.165,436.162 325.832,430.828 323.5,425.5C 312.745,386.259 323.745,354.759 356.5,331C 378.459,318.645 401.459,316.145 425.5,323.5 Z"/></g>
<g><path style="opacity:1" fill="#f0efee" d="M 438.5,372.5 C 437.118,373.801 435.452,374.634 433.5,375C 415.833,375.333 398.167,375.667 380.5,376C 375.872,378.399 374.539,381.899 376.5,386.5C 376.916,388.752 378.249,390.252 380.5,391C 393.833,391.333 407.167,391.667 420.5,392C 434.19,396.537 440.524,406.037 439.5,420.5C 433.886,434.985 423.219,441.319 407.5,439.5C 407.5,442.167 407.5,444.833 407.5,447.5C 407.5,450.833 407.5,454.167 407.5,457.5C 404.867,463.402 400.534,464.902 394.5,462C 393.219,460.591 392.219,459.091 391.5,457.5C 391.5,454.167 391.5,450.833 391.5,447.5C 391.5,444.833 391.5,442.167 391.5,439.5C 382.494,439.666 373.494,439.5 364.5,439C 363.016,438.338 361.683,437.504 360.5,436.5C 358.272,431.1 359.606,426.933 364.5,424C 382.5,423.667 400.5,423.333 418.5,423C 420.751,422.252 422.084,420.752 422.5,418.5C 424.461,413.899 423.128,410.399 418.5,408C 404.833,407.667 391.167,407.333 377.5,407C 368.583,403.584 362.583,397.417 359.5,388.5C 359.958,367.713 370.625,358.046 391.5,359.5C 391.334,353.158 391.5,346.825 392,340.5C 394.983,335.432 399.149,334.265 404.5,337C 405.701,337.903 406.535,339.069 407,340.5C 407.5,346.825 407.666,353.158 407.5,359.5C 417.247,359.08 426.914,359.58 436.5,361C 439.672,364.361 440.338,368.195 438.5,372.5 Z"/></g>
<g><path style="opacity:1" fill="#0b5077" d="M 159.5,447.5 C 148.833,447.5 138.167,447.5 127.5,447.5C 127.5,427.833 127.5,408.167 127.5,388.5C 127.044,377.064 127.544,365.731 129,354.5C 129.903,353.299 131.069,352.465 132.5,352C 139.5,351.333 146.5,351.333 153.5,352C 155.329,352.273 156.829,353.107 158,354.5C 159.485,385.412 159.985,416.412 159.5,447.5 Z"/></g>
<g><path style="opacity:1" fill="#dc9603" d="M 438.5,372.5 C 439.643,375.068 439.476,377.735 438,380.5C 436.829,381.893 435.329,382.727 433.5,383C 415.833,383.333 398.167,383.667 380.5,384C 379.016,384.662 377.683,385.496 376.5,386.5C 374.539,381.899 375.872,378.399 380.5,376C 398.167,375.667 415.833,375.333 433.5,375C 435.452,374.634 437.118,373.801 438.5,372.5 Z"/></g>
<g><path style="opacity:1" fill="#c80a4f" d="M 127.5,388.5 C 127.5,408.167 127.5,427.833 127.5,447.5C 116.833,447.5 106.167,447.5 95.5,447.5C 95.5,438.5 95.5,429.5 95.5,420.5C 95.0441,409.064 95.5441,397.731 97,386.5C 97.9025,385.299 99.0692,384.465 100.5,384C 107.5,383.333 114.5,383.333 121.5,384C 124.254,384.599 126.254,386.099 127.5,388.5 Z"/></g>
<g><path style="opacity:1" fill="#dc9706" d="M 359.5,388.5 C 362.583,397.417 368.583,403.584 377.5,407C 391.167,407.333 404.833,407.667 418.5,408C 423.128,410.399 424.461,413.899 422.5,418.5C 421.317,417.496 419.984,416.662 418.5,416C 403.765,415.95 389.099,415.284 374.5,414C 364.213,408.59 359.213,400.09 359.5,388.5 Z"/></g>
<g><path style="opacity:1" fill="#05a0c7" d="M 95.5,420.5 C 95.5,429.5 95.5,438.5 95.5,447.5C 84.8333,447.5 74.1667,447.5 63.5,447.5C 63.3336,438.494 63.5002,429.494 64,420.5C 64.4652,419.069 65.2986,417.903 66.5,417C 74.3953,415.399 82.3953,415.066 90.5,416C 92.687,417.025 94.3536,418.525 95.5,420.5 Z"/></g>
<g><path style="opacity:1" fill="#dc9809" d="M 439.5,420.5 C 438.079,440.244 427.412,449.244 407.5,447.5C 407.5,444.833 407.5,442.167 407.5,439.5C 423.219,441.319 433.886,434.985 439.5,420.5 Z"/></g>
<g><path style="opacity:0.962" fill="#02a0c7" d="M 187.5,425.5 C 232.833,444.167 278.167,444.167 323.5,425.5C 325.832,430.828 328.165,436.162 330.5,441.5C 294.966,455.524 258.299,459.357 220.5,453C 206.751,450.471 193.417,446.637 180.5,441.5C 182.813,436.203 185.146,430.87 187.5,425.5 Z"/></g>
<g><path style="opacity:1" fill="#dc9600" d="M 360.5,436.5 C 361.683,437.504 363.016,438.338 364.5,439C 373.494,439.5 382.494,439.666 391.5,439.5C 391.5,442.167 391.5,444.833 391.5,447.5C 382.494,447.666 373.494,447.5 364.5,447C 360.271,444.469 358.938,440.969 360.5,436.5 Z"/></g>
<g><path style="opacity:1" fill="#db9600" d="M 63.5,447.5 C 74.1667,447.5 84.8333,447.5 95.5,447.5C 106.167,447.5 116.833,447.5 127.5,447.5C 138.167,447.5 148.833,447.5 159.5,447.5C 159.5,450.167 159.5,452.833 159.5,455.5C 127.5,455.5 95.5,455.5 63.5,455.5C 63.5,452.833 63.5,450.167 63.5,447.5 Z"/></g>
<g><path style="opacity:1" fill="#dd9705" d="M 391.5,457.5 C 392.219,459.091 393.219,460.591 394.5,462C 400.534,464.902 404.867,463.402 407.5,457.5C 407.737,461.273 407.237,464.94 406,468.5C 401.631,472.379 397.298,472.379 393,468.5C 391.763,464.94 391.263,461.273 391.5,457.5 Z"/></g>
</svg>
