<?xml version="1.0" encoding="UTF-8"?>
<!DOCTYPE svg PUBLIC "-//W3C//DTD SVG 1.1//EN" "http://www.w3.org/Graphics/SVG/1.1/DTD/svg11.dtd">
<svg xmlns="http://www.w3.org/2000/svg" version="1.1" width="687px" height="300px" style="shape-rendering:geometricPrecision; text-rendering:geometricPrecision; image-rendering:optimizeQuality; fill-rule:evenodd; clip-rule:evenodd" xmlns:xlink="http://www.w3.org/1999/xlink">
<g><path style="opacity:1" fill="#fefefe" d="M -0.5,-0.5 C 228.5,-0.5 457.5,-0.5 686.5,-0.5C 686.5,99.5 686.5,199.5 686.5,299.5C 457.5,299.5 228.5,299.5 -0.5,299.5C -0.5,199.5 -0.5,99.5 -0.5,-0.5 Z"/></g>
<g><path style="opacity:1" fill="#0e110e" d="M 38.5,120.5 C 38.7828,121.289 39.2828,121.956 40,122.5C 40.4992,117.845 40.6658,113.179 40.5,108.5C 46.7817,67.0499 70.4484,41.8833 111.5,33C 144.743,29.0521 171.91,39.8855 193,65.5C 217.047,101.847 216.047,137.514 190,172.5C 169.913,194.12 145.08,203.954 115.5,202C 105.438,200.306 95.7709,197.639 86.5,194C 89.468,200.987 88.8014,207.653 84.5,214C 87.8529,221.164 87.0195,227.664 82,233.5C 82.9448,241.105 80.4448,247.271 74.5,252C 60.4204,259.682 45.4204,262.349 29.5,260C 19.3004,256.125 14.8004,248.625 16,237.5C 10.913,231.472 10.0796,224.805 13.5,217.5C 10.366,211.752 9.86599,205.752 12,199.5C 13.6667,196.5 15.3333,193.5 17,190.5C 15.8418,183.583 15.5085,176.583 16,169.5C 19.2792,163.942 21.1126,157.942 21.5,151.5C 21.099,146.797 19.599,142.464 17,138.5C 13.9088,133.986 10.5755,129.653 7,125.5C 0.642778,109.548 5.80945,102.715 22.5,105C 29.6599,108.327 34.9932,113.494 38.5,120.5 Z"/></g>
<g><path style="opacity:1" fill="#5aa356" d="M 154.5,42.5 C 149.494,41.4146 144.494,40.2479 139.5,39C 133.509,38.5005 127.509,38.3338 121.5,38.5C 88.8259,41.3398 65.6592,57.6731 52,87.5C 47.0541,100.401 45.3874,113.734 47,127.5C 48.7458,135.559 50.5791,143.559 52.5,151.5C 39.2056,121.397 42.3722,93.0632 62,66.5C 87.6803,38.1365 118.514,30.1365 154.5,42.5 Z"/></g>
<g><path style="opacity:1" fill="#96d07a" d="M 121.5,38.5 C 79.2028,47.4597 56.5361,73.4597 53.5,116.5C 53.5269,133.597 58.3602,149.263 68,163.5C 71.8246,164.21 75.658,165.044 79.5,166C 80.756,166.417 81.4226,167.25 81.5,168.5C 74.4641,165.866 67.1308,164.366 59.5,164C 56.5086,160.183 54.1753,156.016 52.5,151.5C 50.5791,143.559 48.7458,135.559 47,127.5C 45.3874,113.734 47.0541,100.401 52,87.5C 65.6592,57.6731 88.8259,41.3398 121.5,38.5 Z"/></g>
<g><path style="opacity:1" fill="#48b649" d="M 121.5,38.5 C 127.509,38.3338 133.509,38.5005 139.5,39C 144.494,40.2479 149.494,41.4146 154.5,42.5C 182.48,53.9897 199.314,74.6564 205,104.5C 208.544,140.239 195.377,167.739 165.5,187C 159.224,190.591 152.557,193.091 145.5,194.5C 138.957,195.891 132.291,196.558 125.5,196.5C 121.651,196.499 117.984,196.165 114.5,195.5C 115.552,195.649 116.552,195.483 117.5,195C 106.84,192.284 96.8399,188.117 87.5,182.5C 87.6846,176.872 85.6846,172.205 81.5,168.5C 81.4226,167.25 80.756,166.417 79.5,166C 75.658,165.044 71.8246,164.21 68,163.5C 58.3602,149.263 53.5269,133.597 53.5,116.5C 56.5361,73.4597 79.2028,47.4597 121.5,38.5 Z"/></g>
<g><path style="opacity:1" fill="#040b05" d="M 153.5,91.5 C 162.364,91.5275 166.531,95.8608 166,104.5C 163.279,110.277 158.779,112.444 152.5,111C 145.531,103.945 145.864,97.4454 153.5,91.5 Z"/></g>
<g><path style="opacity:1" fill="#040c05" d="M 90.5,91.5 C 98.8508,91.353 103.017,95.353 103,103.5C 101.024,109.709 96.8578,112.209 90.5,111C 81.2215,104.503 81.2215,98.003 90.5,91.5 Z"/></g>
<g><path style="opacity:1" fill="#100f0c" d="M 347.5,38.5 C 390.641,35.142 421.474,52.8087 440,91.5C 452.201,127.532 445.034,159.032 418.5,186C 395.453,205.512 369.119,212.012 339.5,205.5C 330.468,207.265 322.635,211.265 316,217.5C 314.927,224.154 313.927,230.82 313,237.5C 307.415,247.931 299.415,250.265 289,244.5C 281.2,249.811 273.367,249.811 265.5,244.5C 257.779,249.182 250.945,248.182 245,241.5C 236.588,243.127 230.255,240.127 226,232.5C 218.698,217.396 217.032,201.73 221,185.5C 225.553,178.479 232.053,175.646 240.5,177C 243.852,174.467 247.519,172.634 251.5,171.5C 254.958,172.097 258.291,173.097 261.5,174.5C 270.736,169.9 279.403,170.733 287.5,177C 289.902,177.814 292.235,177.647 294.5,176.5C 270.284,142.387 269.451,107.72 292,72.5C 306.418,54.38 324.918,43.0467 347.5,38.5 Z"/></g>
<g><path style="opacity:1" fill="#ebdf4f" d="M 347.5,43.5 C 347.082,44.2216 346.416,44.7216 345.5,45C 346.5,45.3333 347.5,45.6667 348.5,46C 348.167,46.3333 347.833,46.6667 347.5,47C 344.314,46.8859 341.314,47.0526 338.5,47.5C 328.844,51.1039 319.844,55.9373 311.5,62C 303.084,70.056 295.917,78.8893 290,88.5C 288.798,94.673 287.131,100.673 285,106.5C 283.425,120.172 283.592,133.838 285.5,147.5C 286.5,147.5 287.5,147.5 288.5,147.5C 290.637,157.604 295.303,166.437 302.5,174C 301.944,174.383 301.611,174.883 301.5,175.5C 297.221,173.316 294.054,169.982 292,165.5C 271.142,124.802 277.642,89.3016 311.5,59C 322.353,51.2142 334.353,46.0476 347.5,43.5 Z"/></g>
<g><path style="opacity:1" fill="#f9dc0b" d="M 307.5,175.5 C 284.033,144.956 281.866,112.956 301,79.5C 311.149,64.8583 324.649,54.525 341.5,48.5C 340.675,47.6143 339.675,47.281 338.5,47.5C 341.314,47.0526 344.314,46.8859 347.5,47C 347.833,46.6667 348.167,46.3333 348.5,46C 347.5,45.6667 346.5,45.3333 345.5,45C 346.416,44.7216 347.082,44.2216 347.5,43.5C 388.762,39.5433 418.262,56.2099 436,93.5C 447.63,129.607 439.463,160.44 411.5,186C 393.867,199.744 373.867,205.411 351.5,203C 360.823,199.007 368.323,192.841 374,184.5C 378.199,169.373 372.699,163.207 357.5,166C 349.766,171.396 341.766,176.396 333.5,181C 329.167,181.667 324.833,181.667 320.5,181C 316.276,178.706 311.943,176.873 307.5,175.5 Z"/></g>
<g><path style="opacity:1" fill="#090a03" d="M 390.5,97.5 C 400.178,98.3272 403.678,103.327 401,112.5C 393.596,119.822 387.596,118.822 383,109.5C 382.431,103.571 384.931,99.5709 390.5,97.5 Z"/></g>
<g><path style="opacity:1" fill="#0c0b03" d="M 325.5,97.5 C 338.08,98.1658 341.414,103.999 335.5,115C 328.525,119.373 323.359,117.873 320,110.5C 318.571,104.7 320.404,100.367 325.5,97.5 Z"/></g>
<g><path style="opacity:1" fill="#fdfdfd" d="M 33.5,119.5 C 31.9735,120.492 31.3068,121.992 31.5,124C 33.013,137.327 38.6796,148.494 48.5,157.5C 50.6902,160.688 53.0235,163.855 55.5,167C 61.1027,168.124 66.7694,168.79 72.5,169C 75.4453,169.139 77.7786,170.306 79.5,172.5C 81.3305,178.024 80.6638,183.19 77.5,188C 67.5814,189.119 57.5814,189.952 47.5,190.5C 49.2199,191.934 51.2199,192.767 53.5,193C 61.5,193.333 69.5,193.667 77.5,194C 83.6419,199.36 83.9752,205.026 78.5,211C 68.907,212.255 59.2404,212.921 49.5,213C 48.6919,213.308 48.0253,213.808 47.5,214.5C 56.856,215.557 66.1893,216.724 75.5,218C 79.5318,223.236 78.8651,227.902 73.5,232C 62.8452,233.997 52.1786,235.664 41.5,237C 44.0385,238.047 46.7052,238.547 49.5,238.5C 57.5102,237.665 65.5102,237.165 73.5,237C 75.2268,239.904 75.8935,243.07 75.5,246.5C 61.1617,255.831 45.4951,258.998 28.5,256C 25.0629,254.895 22.5629,252.728 21,249.5C 21.7752,242.224 19.7752,235.89 15,230.5C 14.7044,226.249 15.2044,222.083 16.5,218C 15.6624,213.815 14.6624,209.648 13.5,205.5C 14.9976,200.509 17.1642,195.842 20,191.5C 20.6017,185.913 20.1017,180.413 18.5,175C 20.1799,169.135 22.0132,163.301 24,157.5C 25.4393,149.479 23.7726,142.146 19,135.5C 13.2288,129.908 9.39548,123.241 7.5,115.5C 7.11914,112.675 8.11914,110.509 10.5,109C 20.9174,106.21 28.5841,109.71 33.5,119.5 Z"/></g>
<g><path style="opacity:1" fill="#818083" d="M 40.5,108.5 C 40.6658,113.179 40.4992,117.845 40,122.5C 39.2828,121.956 38.7828,121.289 38.5,120.5C 39.1667,116.5 39.8333,112.5 40.5,108.5 Z"/></g>
<g><path style="opacity:1" fill="#d7dbd9" d="M 33.5,119.5 C 35.8096,122.102 37.6429,125.102 39,128.5C 41.4115,138.505 44.5782,148.171 48.5,157.5C 38.6796,148.494 33.013,137.327 31.5,124C 31.3068,121.992 31.9735,120.492 33.5,119.5 Z"/></g>
<g><path style="opacity:1" fill="#faf079" d="M 338.5,47.5 C 339.675,47.281 340.675,47.6143 341.5,48.5C 324.649,54.525 311.149,64.8583 301,79.5C 281.866,112.956 284.033,144.956 307.5,175.5C 305.5,175.5 303.5,175.5 301.5,175.5C 301.611,174.883 301.944,174.383 302.5,174C 295.303,166.437 290.637,157.604 288.5,147.5C 287.5,147.5 286.5,147.5 285.5,147.5C 283.592,133.838 283.425,120.172 285,106.5C 287.131,100.673 288.798,94.673 290,88.5C 295.917,78.8893 303.084,70.056 311.5,62C 319.844,55.9373 328.844,51.1039 338.5,47.5 Z"/></g>
<g><path style="opacity:1" fill="#050802" d="M 319.5,149.5 C 347.169,149.333 374.835,149.5 402.5,150C 403.833,151.333 403.833,152.667 402.5,154C 374.833,154.667 347.167,154.667 319.5,154C 318.272,152.51 318.272,151.01 319.5,149.5 Z"/></g>
<g><path style="opacity:1" fill="#030c04" d="M 79.5,136.5 C 80.8734,136.343 82.2068,136.51 83.5,137C 100.883,161.929 123.216,167.596 150.5,154C 157.186,149.646 162.519,143.98 166.5,137C 168.955,136.228 170.622,137.061 171.5,139.5C 163.345,154.758 150.678,163.924 133.5,167C 111.144,169.404 93.3109,161.571 80,143.5C 78.3364,141.214 78.1697,138.881 79.5,136.5 Z"/></g>
<g><path style="opacity:1" fill="#fcfcfc" d="M 360.5,193.5 C 349.404,191.274 339.404,193.774 330.5,201C 327.261,202.736 324.927,205.236 323.5,208.5C 319.271,210.557 315.437,213.223 312,216.5C 311.775,223.218 311.108,229.885 310,236.5C 309.004,238.66 307.504,240.327 305.5,241.5C 300.969,241.002 296.469,240.002 292,238.5C 290.956,236.285 290.29,233.952 290,231.5C 289.831,223.812 289.331,216.145 288.5,208.5C 286.938,211.963 286.105,215.63 286,219.5C 285.667,225.833 285.333,232.167 285,238.5C 279.674,243.454 274.007,243.787 268,239.5C 266.929,228.874 266.096,218.207 265.5,207.5C 264.808,208.025 264.308,208.692 264,209.5C 263.428,218.174 262.761,226.841 262,235.5C 252.937,240.635 247.603,237.969 246,227.5C 244.997,218.807 243.83,210.14 242.5,201.5C 241.836,212.517 241.503,223.517 241.5,234.5C 238.579,235.407 235.579,235.74 232.5,235.5C 225.921,224.881 222.254,213.214 221.5,200.5C 220.674,186.161 227.34,179.328 241.5,180C 244.71,177.896 248.043,176.063 251.5,174.5C 254.426,175.698 257.426,176.698 260.5,177.5C 269.783,172.81 278.45,173.644 286.5,180C 294.16,179.847 301.827,179.847 309.5,180C 319.96,185.555 330.626,185.888 341.5,181C 346.118,178.05 350.452,174.716 354.5,171C 358.387,167.97 362.72,166.97 367.5,168C 373.628,173.597 374.128,179.764 369,186.5C 366.564,189.447 363.731,191.78 360.5,193.5 Z"/></g>
<g><path style="opacity:1" fill="#130c0b" d="M 473.5,147.5 C 472.21,148.058 471.377,149.058 471,150.5C 470.667,154.5 470.333,158.5 470,162.5C 463.666,167.843 462.832,174.009 467.5,181C 464.859,184.781 463.193,188.948 462.5,193.5C 462.667,194.833 462.833,196.167 463,197.5C 464.697,199.699 466.197,202.032 467.5,204.5C 465.294,207.28 463.961,210.446 463.5,214C 463.859,216.546 464.859,218.713 466.5,220.5C 468.263,223.556 470.93,225.389 474.5,226C 480.581,226.138 486.581,226.804 492.5,228C 495.3,231.775 497.966,235.608 500.5,239.5C 504.429,248.87 507.596,258.536 510,268.5C 511.026,271.239 512.526,273.572 514.5,275.5C 513.116,276.801 511.616,276.801 510,275.5C 505.768,266.575 502.768,257.242 501,247.5C 498.431,241.775 495.264,236.442 491.5,231.5C 482.804,231.163 474.47,229.33 466.5,226C 460.022,219.628 459.022,212.462 463.5,204.5C 458.201,196.681 458.201,188.848 463.5,181C 460.179,173.878 461.012,167.378 466,161.5C 465.055,153.895 467.555,147.729 473.5,143C 485.238,136.066 497.905,133.232 511.5,134.5C 508.06,89.8515 526.727,58.6848 567.5,41C 609.189,29.2281 642.689,40.7281 668,75.5C 687.426,110.105 685.426,143.438 662,175.5C 629.773,208.955 592.939,215.121 551.5,194C 546.379,190.547 541.546,186.714 537,182.5C 537.502,186.092 537.502,189.759 537,193.5C 534.691,197.952 532.524,202.452 530.5,207C 532.263,212.731 532.763,218.564 532,224.5C 529.446,230.108 527.613,235.941 526.5,242C 526.967,246.367 528.133,250.534 530,254.5C 535.122,261.118 539.622,268.118 543.5,275.5C 543,275.833 542.5,276.167 542,276.5C 537.587,270.019 532.92,263.686 528,257.5C 524.16,251.319 522.827,244.653 524,237.5C 526.41,231.455 528.243,225.289 529.5,219C 528.467,213.851 527.967,208.684 528,203.5C 531.262,198.976 533.429,193.976 534.5,188.5C 533.094,184.612 532.094,180.612 531.5,176.5C 534.892,169.861 534.059,163.861 529,158.5C 528.065,153.467 527.065,148.467 526,143.5C 523.9,140.533 521.066,138.7 517.5,138C 501.649,136.132 486.983,139.299 473.5,147.5 Z"/></g>
<g><path style="opacity:1" fill="#140504" d="M 611.5,142.5 C 625.25,146.742 635.584,155.242 642.5,168C 642.563,170.942 641.23,171.942 638.5,171C 634.833,166.667 631.167,162.333 627.5,158C 625.922,156.906 624.255,156.072 622.5,155.5C 618.151,151.992 613.151,149.492 607.5,148C 592.931,145.193 579.598,147.86 567.5,156C 562.231,160.93 557.398,166.096 553,171.5C 549.928,170.553 548.928,168.553 550,165.5C 554.028,159.64 558.862,154.64 564.5,150.5C 568.399,148.721 572.065,146.721 575.5,144.5C 587.253,140.234 599.253,139.567 611.5,142.5 Z"/></g>
<g><path style="opacity:1" fill="#c8292f" d="M 673.5,101.5 C 675.011,103.476 675.844,105.809 676,108.5C 677.706,123.498 675.873,137.832 670.5,151.5C 670.863,147.776 671.529,144.109 672.5,140.5C 672.41,138.772 672.077,137.106 671.5,135.5C 672.718,135.891 673.552,135.224 674,133.5C 674.737,122.807 674.57,112.14 673.5,101.5 Z"/></g>
<g><path style="opacity:1" fill="#a82127" d="M 664.5,79.5 C 670.21,85.6644 673.21,92.9978 673.5,101.5C 671.48,93.7974 668.48,86.4641 664.5,79.5 Z"/></g>
<g><path style="opacity:1" fill="#b72d33" d="M 611.5,42.5 C 601.319,42.1726 591.319,42.506 581.5,43.5C 535.34,56.6981 514.34,87.3647 518.5,135.5C 511.579,98.4743 524.579,69.9743 557.5,50C 574.739,40.9891 592.739,38.4891 611.5,42.5 Z"/></g>
<g><path style="opacity:1" fill="#f87a7b" d="M 581.5,43.5 C 583.199,43.3398 584.866,43.5065 586.5,44C 552.246,52.9202 531.746,74.7535 525,109.5C 524.333,116.833 524.333,124.167 525,131.5C 525.097,134.482 525.93,137.149 527.5,139.5C 524.905,137.371 521.905,136.038 518.5,135.5C 514.34,87.3647 535.34,56.6981 581.5,43.5 Z"/></g>
<g><path style="opacity:1" fill="#e81c24" d="M 581.5,43.5 C 591.319,42.506 601.319,42.1726 611.5,42.5C 634.604,47.2049 652.27,59.5382 664.5,79.5C 668.48,86.4641 671.48,93.7974 673.5,101.5C 674.57,112.14 674.737,122.807 674,133.5C 673.552,135.224 672.718,135.891 671.5,135.5C 672.077,137.106 672.41,138.772 672.5,140.5C 671.529,144.109 670.863,147.776 670.5,151.5C 661.432,173.388 645.765,188.554 623.5,197C 618.292,198.802 612.959,199.969 607.5,200.5C 602.434,200.66 597.434,200.16 592.5,199C 591.594,197.301 591.261,195.467 591.5,193.5C 588.282,193.651 587.949,194.484 590.5,196C 587.833,196.667 585.167,196.667 582.5,196C 583.939,195.009 584.939,193.676 585.5,192C 583.893,190.951 583.227,189.451 583.5,187.5C 580.833,188.167 578.167,188.833 575.5,189.5C 575.5,186.167 575.5,182.833 575.5,179.5C 569.833,179.5 564.167,179.5 558.5,179.5C 559.052,181.331 559.052,182.997 558.5,184.5C 556.694,182.392 554.527,180.726 552,179.5C 548.592,173.97 550.259,171.97 557,173.5C 558.713,172.863 558.879,171.863 557.5,170.5C 560.339,167.296 563.672,166.296 567.5,167.5C 567.335,164.482 567.502,161.482 568,158.5C 569.333,159.833 570.667,159.833 572,158.5C 572.308,159.308 572.808,159.975 573.5,160.5C 575.321,159.272 576.321,157.606 576.5,155.5C 575.448,155.649 574.448,155.483 573.5,155C 575.769,152.977 578.436,152.144 581.5,152.5C 581.351,153.552 581.517,154.552 582,155.5C 582.318,153.939 583.151,152.772 584.5,152C 586.81,151.503 589.143,151.337 591.5,151.5C 591.5,154.167 591.5,156.833 591.5,159.5C 592.833,159.5 594.167,159.5 595.5,159.5C 595.5,156.167 595.5,152.833 595.5,149.5C 597.6,149.477 599.433,150.144 601,151.5C 604.455,150.45 607.955,150.283 611.5,151C 614.935,153.05 618.602,154.55 622.5,155.5C 624.255,156.072 625.922,156.906 627.5,158C 631.167,162.333 634.833,166.667 638.5,171C 641.23,171.942 642.563,170.942 642.5,168C 635.584,155.242 625.25,146.742 611.5,142.5C 607.899,139.22 603.566,137.887 598.5,138.5C 592.617,139.628 586.617,140.628 580.5,141.5C 578.345,142.001 576.678,143.001 575.5,144.5C 572.065,146.721 568.399,148.721 564.5,150.5C 561.899,151.979 559.066,152.979 556,153.5C 548.628,151.68 541.128,151.013 533.5,151.5C 533.649,152.552 533.483,153.552 533,154.5C 532.667,151.167 532.333,147.833 532,144.5C 531.617,143.944 531.117,143.611 530.5,143.5C 529.026,142.564 528.026,141.23 527.5,139.5C 525.93,137.149 525.097,134.482 525,131.5C 524.333,124.167 524.333,116.833 525,109.5C 531.746,74.7535 552.246,52.9202 586.5,44C 584.866,43.5065 583.199,43.3398 581.5,43.5 Z"/></g>
<g><path style="opacity:1" fill="#c8282d" d="M 611.5,142.5 C 599.253,139.567 587.253,140.234 575.5,144.5C 576.678,143.001 578.345,142.001 580.5,141.5C 586.617,140.628 592.617,139.628 598.5,138.5C 603.566,137.887 607.899,139.22 611.5,142.5 Z"/></g>
<g><path style="opacity:1" fill="#8b1d25" d="M 618.5,101.5 C 618.342,104.902 618.676,108.236 619.5,111.5C 618.883,111.389 618.383,111.056 618,110.5C 617.195,107.304 617.362,104.304 618.5,101.5 Z"/></g>
<g><path style="opacity:1" fill="#bd272f" d="M 631.5,96.5 C 636.386,97.3975 638.719,100.398 638.5,105.5C 638.531,110.472 636.197,113.805 631.5,115.5C 639.368,108.911 639.368,102.578 631.5,96.5 Z"/></g>
<g><path style="opacity:1" fill="#0f0605" d="M 560.5,95.5 C 571.088,95.2489 575.254,100.249 573,110.5C 566.604,117.444 560.604,117.111 555,109.5C 553.792,103.59 555.625,98.9232 560.5,95.5 Z"/></g>
<g><path style="opacity:1" fill="#110705" d="M 631.5,96.5 C 639.368,102.578 639.368,108.911 631.5,115.5C 626.633,116.411 622.633,115.078 619.5,111.5C 618.676,108.236 618.342,104.902 618.5,101.5C 621.584,96.3211 625.917,94.6544 631.5,96.5 Z"/></g>
<g><path style="opacity:1" fill="#f97a79" d="M 536.5,163.5 C 549.111,182.568 566.778,194.401 589.5,199C 587.527,199.495 585.527,199.662 583.5,199.5C 569.51,196.664 556.844,190.831 545.5,182C 541.893,178.902 538.893,175.402 536.5,171.5C 536.5,168.833 536.5,166.167 536.5,163.5 Z"/></g>
<g><path style="opacity:1" fill="#e42128" d="M 530.5,143.5 C 531.117,143.611 531.617,143.944 532,144.5C 532.333,147.833 532.667,151.167 533,154.5C 533.483,153.552 533.649,152.552 533.5,151.5C 541.128,151.013 548.628,151.68 556,153.5C 559.066,152.979 561.899,151.979 564.5,150.5C 558.862,154.64 554.028,159.64 550,165.5C 548.928,168.553 549.928,170.553 553,171.5C 557.398,166.096 562.231,160.93 567.5,156C 579.598,147.86 592.931,145.193 607.5,148C 613.151,149.492 618.151,151.992 622.5,155.5C 618.602,154.55 614.935,153.05 611.5,151C 607.955,150.283 604.455,150.45 601,151.5C 599.433,150.144 597.6,149.477 595.5,149.5C 595.5,152.833 595.5,156.167 595.5,159.5C 594.167,159.5 592.833,159.5 591.5,159.5C 591.5,156.833 591.5,154.167 591.5,151.5C 589.143,151.337 586.81,151.503 584.5,152C 583.151,152.772 582.318,153.939 582,155.5C 581.517,154.552 581.351,153.552 581.5,152.5C 578.436,152.144 575.769,152.977 573.5,155C 574.448,155.483 575.448,155.649 576.5,155.5C 576.321,157.606 575.321,159.272 573.5,160.5C 572.808,159.975 572.308,159.308 572,158.5C 570.667,159.833 569.333,159.833 568,158.5C 567.502,161.482 567.335,164.482 567.5,167.5C 563.672,166.296 560.339,167.296 557.5,170.5C 558.879,171.863 558.713,172.863 557,173.5C 550.259,171.97 548.592,173.97 552,179.5C 554.527,180.726 556.694,182.392 558.5,184.5C 559.052,182.997 559.052,181.331 558.5,179.5C 564.167,179.5 569.833,179.5 575.5,179.5C 575.5,182.833 575.5,186.167 575.5,189.5C 578.167,188.833 580.833,188.167 583.5,187.5C 583.227,189.451 583.893,190.951 585.5,192C 584.939,193.676 583.939,195.009 582.5,196C 585.167,196.667 587.833,196.667 590.5,196C 587.949,194.484 588.282,193.651 591.5,193.5C 591.261,195.467 591.594,197.301 592.5,199C 597.434,200.16 602.434,200.66 607.5,200.5C 599.5,201.833 591.5,201.833 583.5,200.5C 583.5,200.167 583.5,199.833 583.5,199.5C 585.527,199.662 587.527,199.495 589.5,199C 566.778,194.401 549.111,182.568 536.5,163.5C 535.663,161.141 534.163,159.141 532,157.5C 531.719,152.785 531.219,148.118 530.5,143.5 Z"/></g>
<g><path style="opacity:1" fill="#549d50" d="M 114.5,195.5 C 117.984,196.165 121.651,196.499 125.5,196.5C 132.291,196.558 138.957,195.891 145.5,194.5C 125.496,200.057 106.163,198.057 87.5,188.5C 87.369,187.761 87.5357,187.094 88,186.5C 96.1447,191.433 104.978,194.433 114.5,195.5 Z"/></g>
<g><path style="opacity:1" fill="#8ed678" d="M 87.5,182.5 C 96.8399,188.117 106.84,192.284 117.5,195C 116.552,195.483 115.552,195.649 114.5,195.5C 104.978,194.433 96.1447,191.433 88,186.5C 87.5357,187.094 87.369,187.761 87.5,188.5C 86.4271,186.653 86.4271,184.653 87.5,182.5 Z"/></g>
<g><path style="opacity:1" fill="#b72e33" d="M 536.5,171.5 C 538.893,175.402 541.893,178.902 545.5,182C 556.844,190.831 569.51,196.664 583.5,199.5C 583.5,199.833 583.5,200.167 583.5,200.5C 564.578,198.121 548.744,189.788 536,175.5C 535.235,173.934 535.402,172.601 536.5,171.5 Z"/></g>
<g><path style="opacity:1" fill="#d9dada" d="M 360.5,193.5 C 358.747,195.223 356.747,196.723 354.5,198C 345.546,200.822 336.546,203.489 327.5,206C 326.016,206.662 324.683,207.496 323.5,208.5C 324.927,205.236 327.261,202.736 330.5,201C 339.404,193.774 349.404,191.274 360.5,193.5 Z"/></g>
<g><path style="opacity:1" fill="#dcdddd" d="M 473.5,147.5 C 473.211,151.106 473.544,154.606 474.5,158C 481.795,157.507 489.128,157.007 496.5,156.5C 500.02,156.372 503.353,156.872 506.5,158C 495.195,159.141 484.029,160.975 473,163.5C 470.031,168.013 469.864,172.513 472.5,177C 482.272,177.928 491.938,179.261 501.5,181C 491.064,182.154 480.564,182.987 470,183.5C 468.523,184.444 467.523,185.777 467,187.5C 465.574,192.757 466.741,197.257 470.5,201C 478.833,201.333 487.167,201.667 495.5,202C 497.619,202.098 499.286,202.931 500.5,204.5C 490.445,205.075 480.445,205.908 470.5,207C 469.107,208.171 468.273,209.671 468,211.5C 467.741,214.587 467.241,217.587 466.5,220.5C 464.859,218.713 463.859,216.546 463.5,214C 463.961,210.446 465.294,207.28 467.5,204.5C 466.197,202.032 464.697,199.699 463,197.5C 462.833,196.167 462.667,194.833 462.5,193.5C 463.193,188.948 464.859,184.781 467.5,181C 462.832,174.009 463.666,167.843 470,162.5C 470.333,158.5 470.667,154.5 471,150.5C 471.377,149.058 472.21,148.058 473.5,147.5 Z"/></g>
<g><path style="opacity:1" fill="#dddede" d="M 79.5,172.5 C 83.7077,174.93 85.2077,178.597 84,183.5C 83.0701,185.936 81.9034,188.269 80.5,190.5C 84.8952,194.626 86.3952,199.626 85,205.5C 83.4832,208.343 81.9832,211.177 80.5,214C 85.1146,220.917 84.2813,227.084 78,232.5C 77.6667,236.5 77.3333,240.5 77,244.5C 76.7216,245.416 76.2216,246.082 75.5,246.5C 75.8935,243.07 75.2268,239.904 73.5,237C 65.5102,237.165 57.5102,237.665 49.5,238.5C 46.7052,238.547 44.0385,238.047 41.5,237C 52.1786,235.664 62.8452,233.997 73.5,232C 78.8651,227.902 79.5318,223.236 75.5,218C 66.1893,216.724 56.856,215.557 47.5,214.5C 48.0253,213.808 48.6919,213.308 49.5,213C 59.2404,212.921 68.907,212.255 78.5,211C 83.9752,205.026 83.6419,199.36 77.5,194C 69.5,193.667 61.5,193.333 53.5,193C 51.2199,192.767 49.2199,191.934 47.5,190.5C 57.5814,189.952 67.5814,189.119 77.5,188C 80.6638,183.19 81.3305,178.024 79.5,172.5 Z"/></g>
<g><path style="opacity:1" fill="#dbdbdb" d="M 305.5,241.5 C 303.834,243.828 301.501,244.828 298.5,244.5C 295.116,244.227 291.95,243.227 289,241.5C 285.59,243.705 281.923,245.371 278,246.5C 273.528,245.21 269.362,243.21 265.5,240.5C 258.325,246.292 251.992,245.459 246.5,238C 242.167,237.667 237.833,237.333 233.5,237C 232.944,236.617 232.611,236.117 232.5,235.5C 235.579,235.74 238.579,235.407 241.5,234.5C 241.503,223.517 241.836,212.517 242.5,201.5C 243.83,210.14 244.997,218.807 246,227.5C 247.603,237.969 252.937,240.635 262,235.5C 262.761,226.841 263.428,218.174 264,209.5C 264.308,208.692 264.808,208.025 265.5,207.5C 266.096,218.207 266.929,228.874 268,239.5C 274.007,243.787 279.674,243.454 285,238.5C 285.333,232.167 285.667,225.833 286,219.5C 286.105,215.63 286.938,211.963 288.5,208.5C 289.331,216.145 289.831,223.812 290,231.5C 290.29,233.952 290.956,236.285 292,238.5C 296.469,240.002 300.969,241.002 305.5,241.5 Z"/></g>
<g><path style="opacity:1" fill="#dadcdb" d="M 500.5,239.5 C 510.223,247.271 515.556,257.605 516.5,270.5C 516.564,272.557 515.898,274.223 514.5,275.5C 512.526,273.572 511.026,271.239 510,268.5C 507.596,258.536 504.429,248.87 500.5,239.5 Z"/></g>
<g><path style="opacity:1" fill="#06101b" d="M 395.5,273.5 C 396.196,277.231 396.862,281.065 397.5,285C 396.5,285.667 395.5,285.667 394.5,285C 395.46,281.27 395.793,277.437 395.5,273.5 Z"/></g>
<g><path style="opacity:1" fill="#312c33" d="M 579.5,272.5 C 580.386,271.224 581.386,271.224 582.5,272.5C 584,274.833 585.5,277.167 587,279.5C 587.769,276.901 587.602,274.401 586.5,272C 587.5,271.333 588.5,271.333 589.5,272C 588.867,275.459 588.2,278.959 587.5,282.5C 585.42,280.007 583.586,277.341 582,274.5C 581.231,277.099 581.398,279.599 582.5,282C 581.5,282.667 580.5,282.667 579.5,282C 580.818,278.731 580.818,275.565 579.5,272.5 Z"/></g>
<g><path style="opacity:1" fill="#3c3c3b" d="M 128.5,277.5 C 129.601,276.402 130.934,276.235 132.5,277C 131.465,278.507 131.632,280.007 133,281.5C 133.739,279.779 134.573,278.113 135.5,276.5C 135.78,279.303 134.78,281.97 132.5,284.5C 131.525,281.848 130.192,279.514 128.5,277.5 Z"/></g>
<g><path style="opacity:1" fill="#2b2b36" d="M 346.5,275.5 C 347.386,274.224 348.386,274.224 349.5,275.5C 351,277.833 352.5,280.167 354,282.5C 354.769,279.901 354.602,277.401 353.5,275C 354.5,274.333 355.5,274.333 356.5,275C 355.867,278.459 355.2,281.959 354.5,285.5C 352.42,283.007 350.586,280.341 349,277.5C 348.231,280.099 348.398,282.599 349.5,285C 348.5,285.667 347.5,285.667 346.5,285C 347.818,281.731 347.818,278.565 346.5,275.5 Z"/></g>
<g><path style="opacity:1" fill="#3f383a" d="M 104.5,277.5 C 106.441,279.011 106.941,281.011 106,283.5C 100.152,285.653 98.1516,283.653 100,277.5C 101.616,276.199 103.116,276.199 104.5,277.5 Z"/></g>
<g><path style="opacity:1" fill="#e7e3dd" d="M 104.5,277.5 C 104.5,279.5 104.5,281.5 104.5,283.5C 100.65,283.299 99.65,281.466 101.5,278C 102.448,277.517 103.448,277.351 104.5,277.5 Z"/></g>
<g><path style="opacity:1" fill="#2c2523" d="M 120.5,274.5 C 121.309,275.469 122.309,276.302 123.5,277C 121.75,278.754 121.083,280.921 121.5,283.5C 122.833,283.5 124.167,283.5 125.5,283.5C 125.337,281.143 125.503,278.81 126,276.5C 126.226,279.095 126.726,281.595 127.5,284C 124.901,284.769 122.401,284.602 120,283.5C 119.366,280.445 119.532,277.445 120.5,274.5 Z"/></g>
<g><path style="opacity:1" fill="#2c2426" d="M 616.5,272.5 C 617.309,273.469 618.309,274.302 619.5,275C 617.75,276.754 617.083,278.921 617.5,281.5C 618.833,281.5 620.167,281.5 621.5,281.5C 621.337,279.143 621.503,276.81 622,274.5C 622.226,277.095 622.726,279.595 623.5,282C 620.901,282.769 618.401,282.602 616,281.5C 615.366,278.445 615.532,275.445 616.5,272.5 Z"/></g>
<g><path style="opacity:1" fill="#47434a" d="M 624.5,275.5 C 625.209,274.596 626.209,274.263 627.5,274.5C 628.298,280.988 629.632,280.988 631.5,274.5C 631.78,277.303 630.78,279.97 628.5,282.5C 627.894,279.66 626.561,277.327 624.5,275.5 Z"/></g>
<g><path style="opacity:1" fill="#313133" d="M 108.5,277.5 C 110.127,278.991 111.793,280.491 113.5,282C 112.591,284.319 110.925,284.986 108.5,284C 109.624,283.751 110.624,283.251 111.5,282.5C 109.703,281.305 108.703,279.638 108.5,277.5 Z"/></g>
<g><path style="opacity:1" fill="#091119" d="M 115.5,276.5 C 116.21,278.893 116.877,281.393 117.5,284C 116.5,284.667 115.5,284.667 114.5,284C 115.435,281.619 115.768,279.119 115.5,276.5 Z"/></g>
<g><path style="opacity:1" fill="#393639" d="M 608.5,274.5 C 610.144,274.286 611.644,274.62 613,275.5C 613.236,277.764 613.736,279.931 614.5,282C 612.19,282.497 609.857,282.663 607.5,282.5C 607.238,281.022 607.571,279.689 608.5,278.5C 609.506,278.938 609.506,279.604 608.5,280.5C 609.325,281.386 610.325,281.719 611.5,281.5C 610.948,279.669 610.948,278.003 611.5,276.5C 610.284,275.904 608.951,275.737 607.5,276C 608.056,275.617 608.389,275.117 608.5,274.5 Z"/></g>
<g><path style="opacity:1" fill="#16191d" d="M 90.5,274.5 C 93.1431,273.021 95.6431,273.354 98,275.5C 98.3423,279.32 96.509,280.986 92.5,280.5C 92.3601,282.124 93.0267,283.29 94.5,284C 93.1667,284.667 91.8333,284.667 90.5,284C 91.8184,280.731 91.8184,277.565 90.5,274.5 Z"/></g>
<g><path style="opacity:1" fill="#dedfe0" d="M 92.5,274.5 C 96.1612,274.35 97.1612,275.85 95.5,279C 94.552,279.483 93.552,279.649 92.5,279.5C 92.5,277.833 92.5,276.167 92.5,274.5 Z"/></g>
<g><path style="opacity:1" fill="#222421" d="M 592.5,274.5 C 595.95,273.756 597.616,275.09 597.5,278.5C 591.304,278.574 590.97,279.741 596.5,282C 595.167,282.667 593.833,282.667 592.5,282C 591.221,279.502 591.221,277.002 592.5,274.5 Z"/></g>
<g><path style="opacity:1" fill="#edede9" d="M 593.5,275.5 C 595.983,275.73 596.483,276.397 595,277.5C 593.97,277.164 593.47,276.497 593.5,275.5 Z"/></g>
<g><path style="opacity:1" fill="#3b383e" d="M 604.5,285.5 C 603.167,281.5 601.833,281.5 600.5,285.5C 600.56,282.349 600.393,279.016 600,275.5C 605.575,273.164 607.242,274.497 605,279.5C 604.25,280.126 603.416,280.626 602.5,281C 606.531,281.531 607.197,283.031 604.5,285.5 Z"/></g>
<g><path style="opacity:1" fill="#f4f6f1" d="M 601.5,275.5 C 602.586,275.62 603.253,276.287 603.5,277.5C 603.167,278.167 602.833,278.833 602.5,279.5C 601.571,278.311 601.238,276.978 601.5,275.5 Z"/></g>
<g><path style="opacity:1" fill="#242324" d="M 634.5,274.5 C 637.95,273.756 639.616,275.09 639.5,278.5C 633.304,278.574 632.97,279.741 638.5,282C 637.167,282.667 635.833,282.667 634.5,282C 633.221,279.502 633.221,277.002 634.5,274.5 Z"/></g>
<g><path style="opacity:1" fill="#edeae5" d="M 635.5,275.5 C 637.983,275.73 638.483,276.397 637,277.5C 635.97,277.164 635.47,276.497 635.5,275.5 Z"/></g>
<g><path style="opacity:1" fill="#2c2525" d="M 363.5,278.5 C 364.404,279.209 364.737,280.209 364.5,281.5C 358.304,281.574 357.97,282.741 363.5,285C 361.888,285.72 360.388,285.554 359,284.5C 358.333,282.5 358.333,280.5 359,278.5C 360.616,277.199 362.116,277.199 363.5,278.5 Z"/></g>
<g><path style="opacity:1" fill="#dedad2" d="M 363.5,278.5 C 362.796,280.344 361.463,280.844 359.5,280C 360.563,278.812 361.897,278.312 363.5,278.5 Z"/></g>
<g><path style="opacity:1" fill="#26292c" d="M 138.5,276.5 C 141.95,275.756 143.616,277.09 143.5,280.5C 137.304,280.574 136.97,281.741 142.5,284C 141.167,284.667 139.833,284.667 138.5,284C 137.221,281.502 137.221,279.002 138.5,276.5 Z"/></g>
<g><path style="opacity:1" fill="#efedf0" d="M 139.5,277.5 C 141.983,277.73 142.483,278.397 141,279.5C 139.97,279.164 139.47,278.497 139.5,277.5 Z"/></g>
<g><path style="opacity:1" fill="#383130" d="M 376.5,275.5 C 377.309,276.469 378.309,277.302 379.5,278C 377.75,279.754 377.083,281.921 377.5,284.5C 378.5,284.5 379.5,284.5 380.5,284.5C 380.192,282.076 380.526,279.743 381.5,277.5C 382.833,277.833 384.167,278.167 385.5,278.5C 384.675,279.386 383.675,279.719 382.5,279.5C 382.261,281.467 382.594,283.301 383.5,285C 381.167,285.667 378.833,285.667 376.5,285C 375.3,281.869 375.3,278.702 376.5,275.5 Z"/></g>
<g><path style="opacity:1" fill="#b8b8bc" d="M 604.5,285.5 C 603.167,286.833 601.833,286.833 600.5,285.5C 601.833,281.5 603.167,281.5 604.5,285.5 Z"/></g>
<g><path style="opacity:1" fill="#383135" d="M 366.5,277.5 C 368.344,279.279 369.01,281.612 368.5,284.5C 369.5,284.5 370.5,284.5 371.5,284.5C 371.192,282.076 371.526,279.743 372.5,277.5C 373.214,280.027 373.88,282.527 374.5,285C 367.506,287.173 364.839,284.673 366.5,277.5 Z"/></g>
<g><path style="opacity:1" fill="#43393c" d="M 387.5,277.5 C 389.144,277.286 390.644,277.62 392,278.5C 392.236,280.764 392.736,282.931 393.5,285C 391.19,285.497 388.857,285.663 386.5,285.5C 386.238,284.022 386.571,282.689 387.5,281.5C 388.506,281.938 388.506,282.604 387.5,283.5C 388.325,284.386 389.325,284.719 390.5,284.5C 389.948,282.669 389.948,281.003 390.5,279.5C 389.284,278.904 387.951,278.737 386.5,279C 387.056,278.617 387.389,278.117 387.5,277.5 Z"/></g>
</svg>
