<svg xmlns="http://www.w3.org/2000/svg" id="Layer_1" data-name="Layer 1" viewBox="0 0 222.15 222.15"><circle cx="41" cy="146.69" r="28.77" style="fill:#007988"></circle><circle cx="165.25" cy="135.03" r="30.97" style="fill:#f39200"></circle><circle cx="88.49" cy="46.54" r="3.69" style="fill:#831f82"></circle><path d="M99.73,146.64a38.46,38.46,0,0,1-17.3-4.06,2.72,2.72,0,0,1,2.43-4.87,33.44,33.44,0,0,0,33.55-2.21,2.72,2.72,0,0,1,3,4.5A38.68,38.68,0,0,1,99.73,146.64Z" style="fill:#474747"></path><path d="M135.85,110.51a2.71,2.71,0,0,1-2.71-2.71,33.41,33.41,0,1,0-66.81,0,2.72,2.72,0,0,1-5.44,0,38.84,38.84,0,1,1,77.68,0A2.71,2.71,0,0,1,135.85,110.51Z" style="fill:#474747"></path><path d="M100,132.51a19.81,19.81,0,0,1-19.79-19.79A2.72,2.72,0,0,1,82.91,110H117a2.72,2.72,0,0,1,2.72,2.72A19.81,19.81,0,0,1,100,132.51Zm-14.1-17.07a14.36,14.36,0,0,0,28.19,0Z" style="fill:#474747"></path><path d="M89.46,104.24a2.72,2.72,0,0,1-2.72-2.72,1.41,1.41,0,0,0-2.81,0,2.72,2.72,0,1,1-5.44,0,6.84,6.84,0,0,1,13.68,0A2.71,2.71,0,0,1,89.46,104.24Z" style="fill:#474747"></path><path d="M118.42,104.24a2.72,2.72,0,0,1-2.72-2.72,1.4,1.4,0,0,0-2.8,0,2.72,2.72,0,1,1-5.44,0,6.84,6.84,0,0,1,13.68,0A2.72,2.72,0,0,1,118.42,104.24Z" style="fill:#474747"></path><path d="M158,172.8a32.85,32.85,0,1,1,13.74-3A32.74,32.74,0,0,1,158,172.8Zm0-60.18a27.4,27.4,0,1,0,9.46,1.7A27.27,27.27,0,0,0,158,112.62Z" style="fill:#474747"></path><path d="M151.78,134.86a2.83,2.83,0,0,1-.94-.17,2.72,2.72,0,0,1-1.61-3.49.71.71,0,1,0-1.33-.49,2.72,2.72,0,0,1-5.11-1.88,6.15,6.15,0,1,1,11.55,4.25A2.75,2.75,0,0,1,151.78,134.86Z" style="fill:#474747"></path><path d="M174.41,143.18a2.55,2.55,0,0,1-.93-.17,2.72,2.72,0,0,1-1.62-3.49.71.71,0,1,0-1.33-.49,2.72,2.72,0,0,1-5.11-1.88A6.15,6.15,0,1,1,177,141.4,2.73,2.73,0,0,1,174.41,143.18Z" style="fill:#474747"></path><path d="M45.91,176.68a32.85,32.85,0,1,1,10.74-1.81A32.66,32.66,0,0,1,45.91,176.68Zm0-60.17a27.37,27.37,0,1,0,25.88,18.43A27.21,27.21,0,0,0,45.91,116.51Z" style="fill:#474747"></path><path d="M47.51,164.6a17,17,0,0,1-13.07-6.11A2.72,2.72,0,1,1,38.62,155,11.5,11.5,0,0,0,59,147.94a2.72,2.72,0,1,1,5.44.12A17,17,0,0,1,53,163.68,16.83,16.83,0,0,1,47.51,164.6Z" style="fill:#474747"></path><path d="M29.66,146.69a2.72,2.72,0,0,1-2.57-1.83,6.15,6.15,0,0,1,8.5-7.54,6.08,6.08,0,0,1,3.12,3.52,2.72,2.72,0,1,1-5.14,1.78.71.71,0,0,0-.36-.41.68.68,0,0,0-.54,0,.71.71,0,0,0-.44.9,2.72,2.72,0,0,1-1.68,3.46A2.82,2.82,0,0,1,29.66,146.69Z" style="fill:#474747"></path><path d="M52.45,138.81A2.71,2.71,0,0,1,49.88,137a6.16,6.16,0,0,1,3.8-7.82,6.16,6.16,0,0,1,7.83,3.8,2.72,2.72,0,0,1-5.14,1.78.72.72,0,0,0-.37-.41.68.68,0,0,0-.54,0,.72.72,0,0,0-.44.91,2.71,2.71,0,0,1-1.68,3.45A2.56,2.56,0,0,1,52.45,138.81Z" style="fill:#474747"></path><path d="M151.4,160.56a7.5,7.5,0,0,1-2.83-.55c-4.43-1.8-6.31-7.48-4.2-12.66s7.42-7.94,11.84-6.14,6.31,7.48,4.2,12.66C158.74,158,155.06,160.56,151.4,160.56Zm1.93-14.47c-1.46,0-3.12,1.33-3.92,3.31-1,2.36-.41,4.91,1.21,5.57s3.79-.78,4.75-3.15h0c1-2.36.41-4.91-1.21-5.57A2.12,2.12,0,0,0,153.33,146.09Z" style="fill:#474747"></path><path d="M45.1,62a2.71,2.71,0,0,1-2.4-1.44L34.49,45.11a2.72,2.72,0,1,1,4.8-2.55L47.5,58a2.72,2.72,0,0,1-2.4,4Z" style="fill:#474747"></path><path d="M67.19,62.41a3.05,3.05,0,0,1-.66-.08,2.73,2.73,0,0,1-2-3.3l4.11-16.38A2.72,2.72,0,0,1,73.94,44L69.83,60.35A2.72,2.72,0,0,1,67.19,62.41Z" style="fill:#474747"></path><path d="M32.91,80.42a2.76,2.76,0,0,1-.93-.16L16.11,74.51A2.72,2.72,0,1,1,18,69.4l15.87,5.74a2.72,2.72,0,0,1-.92,5.28Z" style="fill:#474747"></path><path d="M157.73,73.13a2.73,2.73,0,0,1-2.39-4l8.33-15.37a2.72,2.72,0,0,1,4.78,2.58L160.13,71.7A2.74,2.74,0,0,1,157.73,73.13Z" style="fill:#474747"></path><path d="M169.24,90.28a2.73,2.73,0,0,1-.91-5.29l15.92-5.63a2.72,2.72,0,1,1,1.81,5.13l-15.91,5.63A2.91,2.91,0,0,1,169.24,90.28Z" style="fill:#474747"></path><path d="M135.06,72.07A2.72,2.72,0,0,1,132.42,70l-4-16.4a2.72,2.72,0,0,1,5.29-1.29l4,16.41a2.71,2.71,0,0,1-2,3.28A2.8,2.8,0,0,1,135.06,72.07Z" style="fill:#474747"></path><path d="M44.06,87.36a2.72,2.72,0,0,1-2.72-2.72A17.79,17.79,0,0,1,66.05,68.26a2.72,2.72,0,0,1-2.12,5,12.16,12.16,0,0,0-4.81-1A12.35,12.35,0,0,0,46.78,84.64,2.72,2.72,0,0,1,44.06,87.36Z" style="fill:#474747"></path></svg>